solid CATIA STL
  facet normal  -0.000000e+000  0.000000e+000  1.000000e+000
    outer loop
      vertex  2.000000e+001  6.750000e+000  1.495644e+001
      vertex  1.700000e+001  6.750000e+000  1.495644e+001
      vertex  1.700000e+001  2.750000e+000  1.495644e+001
    endloop
  endfacet
  facet normal  -0.000000e+000  0.000000e+000  1.000000e+000
    outer loop
      vertex  2.000000e+001  6.750000e+000  1.495644e+001
      vertex  1.700000e+001  2.750000e+000  1.495644e+001
      vertex  1.700000e+001 -3.250000e+000  1.495644e+001
    endloop
  endfacet
  facet normal  -0.000000e+000  0.000000e+000  1.000000e+000
    outer loop
      vertex  2.000000e+001  6.750000e+000  1.495644e+001
      vertex  1.700000e+001 -3.250000e+000  1.495644e+001
      vertex  1.700000e+001 -6.750000e+000  1.495644e+001
    endloop
  endfacet
  facet normal  0.000000e+000  0.000000e+000  1.000000e+000
    outer loop
      vertex  2.000000e+001  6.750000e+000  1.495644e+001
      vertex  1.700000e+001 -6.750000e+000  1.495644e+001
      vertex  2.000000e+001 -6.750000e+000  1.495644e+001
    endloop
  endfacet
  facet normal  0.000000e+000  0.000000e+000  1.000000e+000
    outer loop
      vertex  0.000000e+000 -3.250000e+000  1.495644e+001
      vertex  1.700000e+001 -3.250000e+000  1.495644e+001
      vertex  0.000000e+000  2.750000e+000  1.495644e+001
    endloop
  endfacet
  facet normal  -0.000000e+000  0.000000e+000  1.000000e+000
    outer loop
      vertex  0.000000e+000  2.750000e+000  1.495644e+001
      vertex  1.700000e+001 -3.250000e+000  1.495644e+001
      vertex  1.700000e+001  2.750000e+000  1.495644e+001
    endloop
  endfacet
  facet normal  1.000000e+000  -0.000000e+000  0.000000e+000
    outer loop
      vertex  2.000000e+001  6.750000e+000  1.495644e+001
      vertex  2.000000e+001 -6.750000e+000  1.495644e+001
      vertex  2.000000e+001  6.945090e+000  1.493722e+001
    endloop
  endfacet
  facet normal  1.000000e+000  0.000000e+000  0.000000e+000
    outer loop
      vertex  2.000000e+001  6.945090e+000  1.493722e+001
      vertex  2.000000e+001 -6.750000e+000  1.495644e+001
      vertex  2.000000e+001 -6.945090e+000  1.493722e+001
    endloop
  endfacet
  facet normal  1.000000e+000  -0.000000e+000  0.000000e+000
    outer loop
      vertex  2.000000e+001  6.945090e+000  1.493722e+001
      vertex  2.000000e+001 -6.945090e+000  1.493722e+001
      vertex  2.000000e+001  7.132683e+000  1.488032e+001
    endloop
  endfacet
  facet normal  1.000000e+000  0.000000e+000  0.000000e+000
    outer loop
      vertex  2.000000e+001  7.132683e+000  1.488032e+001
      vertex  2.000000e+001 -6.945090e+000  1.493722e+001
      vertex  2.000000e+001 -7.132683e+000  1.488032e+001
    endloop
  endfacet
  facet normal  1.000000e+000  -0.000000e+000  0.000000e+000
    outer loop
      vertex  2.000000e+001  7.132683e+000  1.488032e+001
      vertex  2.000000e+001 -7.132683e+000  1.488032e+001
      vertex  2.000000e+001  7.305570e+000  1.478791e+001
    endloop
  endfacet
  facet normal  9.999999e-001  0.000000e+000  0.000000e+000
    outer loop
      vertex  2.000000e+001  7.305570e+000  1.478791e+001
      vertex  2.000000e+001 -7.132683e+000  1.488032e+001
      vertex  2.000000e+001 -7.305570e+000  1.478791e+001
    endloop
  endfacet
  facet normal  1.000000e+000  -0.000000e+000  0.000000e+000
    outer loop
      vertex  2.000000e+001  7.305570e+000  1.478791e+001
      vertex  2.000000e+001 -7.305570e+000  1.478791e+001
      vertex  2.000000e+001  7.457107e+000  1.466354e+001
    endloop
  endfacet
  facet normal  9.999999e-001  0.000000e+000  0.000000e+000
    outer loop
      vertex  2.000000e+001  7.457107e+000  1.466354e+001
      vertex  2.000000e+001 -7.305570e+000  1.478791e+001
      vertex  2.000000e+001 -7.457107e+000  1.466354e+001
    endloop
  endfacet
  facet normal  1.000000e+000  -0.000000e+000  0.000000e+000
    outer loop
      vertex  2.000000e+001  7.457107e+000  1.466354e+001
      vertex  2.000000e+001 -7.457107e+000  1.466354e+001
      vertex  2.000000e+001  7.581470e+000  1.451201e+001
    endloop
  endfacet
  facet normal  1.000000e+000  0.000000e+000  0.000000e+000
    outer loop
      vertex  2.000000e+001  7.581470e+000  1.451201e+001
      vertex  2.000000e+001 -7.457107e+000  1.466354e+001
      vertex  2.000000e+001 -7.581470e+000  1.451201e+001
    endloop
  endfacet
  facet normal  1.000000e+000  -0.000000e+000  0.000000e+000
    outer loop
      vertex  2.000000e+001  7.581470e+000  1.451201e+001
      vertex  2.000000e+001 -7.581470e+000  1.451201e+001
      vertex  2.000000e+001  7.673880e+000  1.433912e+001
    endloop
  endfacet
  facet normal  1.000000e+000  0.000000e+000  0.000000e+000
    outer loop
      vertex  2.000000e+001  7.673880e+000  1.433912e+001
      vertex  2.000000e+001 -7.581470e+000  1.451201e+001
      vertex  2.000000e+001 -7.673880e+000  1.433912e+001
    endloop
  endfacet
  facet normal  1.000000e+000  -0.000000e+000  0.000000e+000
    outer loop
      vertex  2.000000e+001  7.673880e+000  1.433912e+001
      vertex  2.000000e+001 -7.673880e+000  1.433912e+001
      vertex  2.000000e+001  7.730785e+000  1.415153e+001
    endloop
  endfacet
  facet normal  1.000000e+000  0.000000e+000  0.000000e+000
    outer loop
      vertex  2.000000e+001  7.730785e+000  1.415153e+001
      vertex  2.000000e+001 -7.673880e+000  1.433912e+001
      vertex  2.000000e+001 -7.730785e+000  1.415153e+001
    endloop
  endfacet
  facet normal  1.000000e+000  -0.000000e+000  0.000000e+000
    outer loop
      vertex  2.000000e+001  7.730785e+000  1.415153e+001
      vertex  2.000000e+001 -7.730785e+000  1.415153e+001
      vertex  2.000000e+001  7.750000e+000  1.395644e+001
    endloop
  endfacet
  facet normal  1.000000e+000  0.000000e+000  0.000000e+000
    outer loop
      vertex  2.000000e+001  7.750000e+000  1.395644e+001
      vertex  2.000000e+001 -7.730785e+000  1.415153e+001
      vertex  2.000000e+001 -7.750000e+000  1.395644e+001
    endloop
  endfacet
  facet normal  1.000000e+000  -0.000000e+000  0.000000e+000
    outer loop
      vertex  2.000000e+001  7.750000e+000  1.395644e+001
      vertex  2.000000e+001 -7.750000e+000  1.395644e+001
      vertex  2.000000e+001  7.750000e+000  1.956436e+000
    endloop
  endfacet
  facet normal  1.000000e+000  0.000000e+000  0.000000e+000
    outer loop
      vertex  2.000000e+001  7.750000e+000  1.956436e+000
      vertex  2.000000e+001 -7.750000e+000  1.395644e+001
      vertex  2.000000e+001 -7.750000e+000  1.956436e+000
    endloop
  endfacet
  facet normal  1.000000e+000  -0.000000e+000  0.000000e+000
    outer loop
      vertex  2.000000e+001  7.750000e+000  1.956436e+000
      vertex  2.000000e+001 -7.750000e+000  1.956436e+000
      vertex  2.000000e+001  7.730785e+000  1.761346e+000
    endloop
  endfacet
  facet normal  1.000000e+000  0.000000e+000  0.000000e+000
    outer loop
      vertex  2.000000e+001  7.730785e+000  1.761346e+000
      vertex  2.000000e+001 -7.750000e+000  1.956436e+000
      vertex  2.000000e+001 -7.730785e+000  1.761346e+000
    endloop
  endfacet
  facet normal  1.000000e+000  -0.000000e+000  0.000000e+000
    outer loop
      vertex  2.000000e+001  7.730785e+000  1.761346e+000
      vertex  2.000000e+001 -7.730785e+000  1.761346e+000
      vertex  2.000000e+001  7.673880e+000  1.573753e+000
    endloop
  endfacet
  facet normal  1.000000e+000  0.000000e+000  0.000000e+000
    outer loop
      vertex  2.000000e+001  7.673880e+000  1.573753e+000
      vertex  2.000000e+001 -7.730785e+000  1.761346e+000
      vertex  2.000000e+001 -7.673880e+000  1.573753e+000
    endloop
  endfacet
  facet normal  1.000000e+000  -0.000000e+000  0.000000e+000
    outer loop
      vertex  2.000000e+001  7.673880e+000  1.573753e+000
      vertex  2.000000e+001 -7.673880e+000  1.573753e+000
      vertex  2.000000e+001  7.581470e+000  1.400866e+000
    endloop
  endfacet
  facet normal  1.000000e+000  0.000000e+000  0.000000e+000
    outer loop
      vertex  2.000000e+001  7.581470e+000  1.400866e+000
      vertex  2.000000e+001 -7.673880e+000  1.573753e+000
      vertex  2.000000e+001 -7.581470e+000  1.400866e+000
    endloop
  endfacet
  facet normal  1.000000e+000  -0.000000e+000  0.000000e+000
    outer loop
      vertex  2.000000e+001  7.581470e+000  1.400866e+000
      vertex  2.000000e+001 -7.581470e+000  1.400866e+000
      vertex  2.000000e+001  7.457107e+000  1.249329e+000
    endloop
  endfacet
  facet normal  1.000000e+000  0.000000e+000  0.000000e+000
    outer loop
      vertex  2.000000e+001  7.457107e+000  1.249329e+000
      vertex  2.000000e+001 -7.581470e+000  1.400866e+000
      vertex  2.000000e+001 -7.457107e+000  1.249329e+000
    endloop
  endfacet
  facet normal  9.999999e-001  -0.000000e+000  0.000000e+000
    outer loop
      vertex  2.000000e+001  7.457107e+000  1.249329e+000
      vertex  2.000000e+001 -7.457107e+000  1.249329e+000
      vertex  2.000000e+001  7.305570e+000  1.124967e+000
    endloop
  endfacet
  facet normal  1.000000e+000  0.000000e+000  0.000000e+000
    outer loop
      vertex  2.000000e+001  7.305570e+000  1.124967e+000
      vertex  2.000000e+001 -7.457107e+000  1.249329e+000
      vertex  2.000000e+001 -7.305570e+000  1.124967e+000
    endloop
  endfacet
  facet normal  1.000000e+000  -0.000000e+000  0.000000e+000
    outer loop
      vertex  2.000000e+001  7.305570e+000  1.124967e+000
      vertex  2.000000e+001 -7.305570e+000  1.124967e+000
      vertex  2.000000e+001  7.132683e+000  1.032557e+000
    endloop
  endfacet
  facet normal  1.000000e+000  0.000000e+000  0.000000e+000
    outer loop
      vertex  2.000000e+001  7.132683e+000  1.032557e+000
      vertex  2.000000e+001 -7.305570e+000  1.124967e+000
      vertex  2.000000e+001 -7.132683e+000  1.032557e+000
    endloop
  endfacet
  facet normal  1.000000e+000  -0.000000e+000  0.000000e+000
    outer loop
      vertex  2.000000e+001  7.132683e+000  1.032557e+000
      vertex  2.000000e+001 -7.132683e+000  1.032557e+000
      vertex  2.000000e+001  6.945090e+000  9.756509e-001
    endloop
  endfacet
  facet normal  1.000000e+000  0.000000e+000  0.000000e+000
    outer loop
      vertex  2.000000e+001  6.945090e+000  9.756509e-001
      vertex  2.000000e+001 -7.132683e+000  1.032557e+000
      vertex  2.000000e+001 -6.945090e+000  9.756509e-001
    endloop
  endfacet
  facet normal  1.000000e+000  -0.000000e+000  0.000000e+000
    outer loop
      vertex  2.000000e+001  6.945090e+000  9.756509e-001
      vertex  2.000000e+001 -6.945090e+000  9.756509e-001
      vertex  2.000000e+001  6.750000e+000  9.564362e-001
    endloop
  endfacet
  facet normal  1.000000e+000  0.000000e+000  0.000000e+000
    outer loop
      vertex  2.000000e+001  6.750000e+000  9.564362e-001
      vertex  2.000000e+001 -6.945090e+000  9.756509e-001
      vertex  2.000000e+001 -6.750000e+000  9.564362e-001
    endloop
  endfacet
  facet normal  0.000000e+000 -1.000000e+000  0.000000e+000
    outer loop
      vertex  2.000000e+001 -7.750000e+000  1.395644e+001
      vertex  1.700000e+001 -7.750000e+000  1.395644e+001
      vertex  2.000000e+001 -7.750000e+000  1.956436e+000
    endloop
  endfacet
  facet normal  0.000000e+000 -1.000000e+000  0.000000e+000
    outer loop
      vertex  2.000000e+001 -7.750000e+000  1.956436e+000
      vertex  1.700000e+001 -7.750000e+000  1.395644e+001
      vertex  1.700000e+001 -7.750000e+000  4.956436e+000
    endloop
  endfacet
  facet normal  0.000000e+000 -1.000000e+000  -0.000000e+000
    outer loop
      vertex  2.000000e+001 -7.750000e+000  1.956436e+000
      vertex  1.700000e+001 -7.750000e+000  4.956436e+000
      vertex  0.000000e+000 -7.750000e+000  1.956436e+000
    endloop
  endfacet
  facet normal  0.000000e+000 -1.000000e+000  0.000000e+000
    outer loop
      vertex  0.000000e+000 -7.750000e+000  1.956436e+000
      vertex  1.700000e+001 -7.750000e+000  4.956436e+000
      vertex  0.000000e+000 -7.750000e+000  4.956436e+000
    endloop
  endfacet
  facet normal -1.000000e+000  -0.000000e+000  0.000000e+000
    outer loop
      vertex  1.700000e+001 -4.250000e+000  1.395644e+001
      vertex  1.700000e+001 -4.250000e+000  6.956436e+000
      vertex  1.700000e+001 -6.945090e+000  5.937222e+000
    endloop
  endfacet
  facet normal -1.000000e+000  -0.000000e+000  0.000000e+000
    outer loop
      vertex  1.700000e+001 -4.250000e+000  1.395644e+001
      vertex  1.700000e+001 -6.945090e+000  5.937222e+000
      vertex  1.700000e+001 -7.132683e+000  5.880316e+000
    endloop
  endfacet
  facet normal -1.000000e+000  -0.000000e+000  0.000000e+000
    outer loop
      vertex  1.700000e+001 -4.250000e+000  1.395644e+001
      vertex  1.700000e+001 -7.132683e+000  5.880316e+000
      vertex  1.700000e+001 -7.305570e+000  5.787906e+000
    endloop
  endfacet
  facet normal -1.000000e+000  -0.000000e+000  0.000000e+000
    outer loop
      vertex  1.700000e+001 -4.250000e+000  1.395644e+001
      vertex  1.700000e+001 -7.305570e+000  5.787906e+000
      vertex  1.700000e+001 -7.457107e+000  5.663543e+000
    endloop
  endfacet
  facet normal -9.999999e-001  -0.000000e+000  0.000000e+000
    outer loop
      vertex  1.700000e+001 -4.250000e+000  1.395644e+001
      vertex  1.700000e+001 -7.457107e+000  5.663543e+000
      vertex  1.700000e+001 -7.581470e+000  5.512006e+000
    endloop
  endfacet
  facet normal -1.000000e+000  -0.000000e+000  0.000000e+000
    outer loop
      vertex  1.700000e+001 -4.250000e+000  1.395644e+001
      vertex  1.700000e+001 -7.581470e+000  5.512006e+000
      vertex  1.700000e+001 -7.673880e+000  5.339119e+000
    endloop
  endfacet
  facet normal -1.000000e+000  0.000000e+000  0.000000e+000
    outer loop
      vertex  1.700000e+001 -6.750000e+000  5.956436e+000
      vertex  1.700000e+001 -4.418530e+000  6.400866e+000
      vertex  1.700000e+001 -4.542893e+000  6.249330e+000
    endloop
  endfacet
  facet normal -1.000000e+000  0.000000e+000  0.000000e+000
    outer loop
      vertex  1.700000e+001 -6.750000e+000  5.956436e+000
      vertex  1.700000e+001 -4.542893e+000  6.249330e+000
      vertex  1.700000e+001 -4.694430e+000  6.124967e+000
    endloop
  endfacet
  facet normal -1.000000e+000  0.000000e+000  0.000000e+000
    outer loop
      vertex  1.700000e+001 -6.750000e+000  5.956436e+000
      vertex  1.700000e+001 -4.694430e+000  6.124967e+000
      vertex  1.700000e+001 -4.867317e+000  6.032557e+000
    endloop
  endfacet
  facet normal -9.999999e-001  0.000000e+000  0.000000e+000
    outer loop
      vertex  1.700000e+001 -6.750000e+000  5.956436e+000
      vertex  1.700000e+001 -4.867317e+000  6.032557e+000
      vertex  1.700000e+001 -5.054910e+000  5.975651e+000
    endloop
  endfacet
  facet normal -1.000000e+000  0.000000e+000  0.000000e+000
    outer loop
      vertex  1.700000e+001 -6.750000e+000  5.956436e+000
      vertex  1.700000e+001 -5.054910e+000  5.975651e+000
      vertex  1.700000e+001 -5.250000e+000  5.956436e+000
    endloop
  endfacet
  facet normal -1.000000e+000  0.000000e+000  0.000000e+000
    outer loop
      vertex  1.700000e+001 -6.945090e+000  5.937222e+000
      vertex  1.700000e+001 -4.250000e+000  6.956436e+000
      vertex  1.700000e+001 -4.269215e+000  6.761346e+000
    endloop
  endfacet
  facet normal -1.000000e+000  0.000000e+000  0.000000e+000
    outer loop
      vertex  1.700000e+001 -6.945090e+000  5.937222e+000
      vertex  1.700000e+001 -4.269215e+000  6.761346e+000
      vertex  1.700000e+001 -4.326120e+000  6.573753e+000
    endloop
  endfacet
  facet normal -1.000000e+000  0.000000e+000  0.000000e+000
    outer loop
      vertex  1.700000e+001 -6.945090e+000  5.937222e+000
      vertex  1.700000e+001 -4.326120e+000  6.573753e+000
      vertex  1.700000e+001 -4.418530e+000  6.400866e+000
    endloop
  endfacet
  facet normal -1.000000e+000  0.000000e+000  0.000000e+000
    outer loop
      vertex  1.700000e+001 -6.945090e+000  5.937222e+000
      vertex  1.700000e+001 -4.418530e+000  6.400866e+000
      vertex  1.700000e+001 -6.750000e+000  5.956436e+000
    endloop
  endfacet
  facet normal -1.000000e+000  0.000000e+000  -0.000000e+000
    outer loop
      vertex  1.700000e+001 -7.750000e+000  1.395644e+001
      vertex  1.700000e+001 -7.730785e+000  1.415153e+001
      vertex  1.700000e+001 -4.230785e+000  1.415153e+001
    endloop
  endfacet
  facet normal -1.000000e+000  0.000000e+000  0.000000e+000
    outer loop
      vertex  1.700000e+001 -7.750000e+000  1.395644e+001
      vertex  1.700000e+001 -4.230785e+000  1.415153e+001
      vertex  1.700000e+001 -4.250000e+000  1.395644e+001
    endloop
  endfacet
  facet normal -1.000000e+000  -0.000000e+000  0.000000e+000
    outer loop
      vertex  1.700000e+001 -7.750000e+000  1.395644e+001
      vertex  1.700000e+001 -4.250000e+000  1.395644e+001
      vertex  1.700000e+001 -7.673880e+000  5.339119e+000
    endloop
  endfacet
  facet normal -1.000000e+000  -0.000000e+000  0.000000e+000
    outer loop
      vertex  1.700000e+001 -7.750000e+000  1.395644e+001
      vertex  1.700000e+001 -7.673880e+000  5.339119e+000
      vertex  1.700000e+001 -7.730785e+000  5.151526e+000
    endloop
  endfacet
  facet normal -1.000000e+000  -0.000000e+000  0.000000e+000
    outer loop
      vertex  1.700000e+001 -7.750000e+000  1.395644e+001
      vertex  1.700000e+001 -7.730785e+000  5.151526e+000
      vertex  1.700000e+001 -7.750000e+000  4.956436e+000
    endloop
  endfacet
  facet normal -1.000000e+000  0.000000e+000  0.000000e+000
    outer loop
      vertex  1.700000e+001 -3.805570e+000  1.478791e+001
      vertex  1.700000e+001 -7.132683e+000  1.488032e+001
      vertex  1.700000e+001 -3.632684e+000  1.488032e+001
    endloop
  endfacet
  facet normal -1.000000e+000  0.000000e+000  0.000000e+000
    outer loop
      vertex  1.700000e+001 -3.632684e+000  1.488032e+001
      vertex  1.700000e+001 -7.132683e+000  1.488032e+001
      vertex  1.700000e+001 -6.945090e+000  1.493722e+001
    endloop
  endfacet
  facet normal -1.000000e+000  0.000000e+000  0.000000e+000
    outer loop
      vertex  1.700000e+001 -3.632684e+000  1.488032e+001
      vertex  1.700000e+001 -6.945090e+000  1.493722e+001
      vertex  1.700000e+001 -3.445090e+000  1.493722e+001
    endloop
  endfacet
  facet normal -1.000000e+000  0.000000e+000  0.000000e+000
    outer loop
      vertex  1.700000e+001 -3.445090e+000  1.493722e+001
      vertex  1.700000e+001 -6.945090e+000  1.493722e+001
      vertex  1.700000e+001 -6.750000e+000  1.495644e+001
    endloop
  endfacet
  facet normal -1.000000e+000  0.000000e+000  0.000000e+000
    outer loop
      vertex  1.700000e+001 -3.445090e+000  1.493722e+001
      vertex  1.700000e+001 -6.750000e+000  1.495644e+001
      vertex  1.700000e+001 -3.250000e+000  1.495644e+001
    endloop
  endfacet
  facet normal -1.000000e+000  0.000000e+000  0.000000e+000
    outer loop
      vertex  1.700000e+001 -7.132683e+000  1.488032e+001
      vertex  1.700000e+001 -3.805570e+000  1.478791e+001
      vertex  1.700000e+001 -7.305570e+000  1.478791e+001
    endloop
  endfacet
  facet normal -1.000000e+000  0.000000e+000  0.000000e+000
    outer loop
      vertex  1.700000e+001 -7.305570e+000  1.478791e+001
      vertex  1.700000e+001 -3.805570e+000  1.478791e+001
      vertex  1.700000e+001 -3.957107e+000  1.466354e+001
    endloop
  endfacet
  facet normal -1.000000e+000  0.000000e+000  0.000000e+000
    outer loop
      vertex  1.700000e+001 -7.305570e+000  1.478791e+001
      vertex  1.700000e+001 -3.957107e+000  1.466354e+001
      vertex  1.700000e+001 -7.457107e+000  1.466354e+001
    endloop
  endfacet
  facet normal -1.000000e+000  0.000000e+000  0.000000e+000
    outer loop
      vertex  1.700000e+001 -7.457107e+000  1.466354e+001
      vertex  1.700000e+001 -3.957107e+000  1.466354e+001
      vertex  1.700000e+001 -4.081470e+000  1.451201e+001
    endloop
  endfacet
  facet normal -1.000000e+000  0.000000e+000  0.000000e+000
    outer loop
      vertex  1.700000e+001 -7.457107e+000  1.466354e+001
      vertex  1.700000e+001 -4.081470e+000  1.451201e+001
      vertex  1.700000e+001 -7.581470e+000  1.451201e+001
    endloop
  endfacet
  facet normal -1.000000e+000  0.000000e+000  0.000000e+000
    outer loop
      vertex  1.700000e+001 -7.581470e+000  1.451201e+001
      vertex  1.700000e+001 -4.081470e+000  1.451201e+001
      vertex  1.700000e+001 -4.173880e+000  1.433912e+001
    endloop
  endfacet
  facet normal -1.000000e+000  0.000000e+000  0.000000e+000
    outer loop
      vertex  1.700000e+001 -7.581470e+000  1.451201e+001
      vertex  1.700000e+001 -4.173880e+000  1.433912e+001
      vertex  1.700000e+001 -7.673880e+000  1.433912e+001
    endloop
  endfacet
  facet normal -1.000000e+000  0.000000e+000  0.000000e+000
    outer loop
      vertex  1.700000e+001 -7.673880e+000  1.433912e+001
      vertex  1.700000e+001 -4.173880e+000  1.433912e+001
      vertex  1.700000e+001 -4.230785e+000  1.415153e+001
    endloop
  endfacet
  facet normal -1.000000e+000  0.000000e+000  0.000000e+000
    outer loop
      vertex  1.700000e+001 -7.673880e+000  1.433912e+001
      vertex  1.700000e+001 -4.230785e+000  1.415153e+001
      vertex  1.700000e+001 -7.730785e+000  1.415153e+001
    endloop
  endfacet
  facet normal  0.000000e+000 -9.951848e-001  9.801671e-002
    outer loop
      vertex  1.700000e+001 -7.750000e+000  1.395644e+001
      vertex  2.000000e+001 -7.750000e+000  1.395644e+001
      vertex  1.700000e+001 -7.730785e+000  1.415153e+001
    endloop
  endfacet
  facet normal  0.000000e+000 -9.951848e-001  9.801671e-002
    outer loop
      vertex  1.700000e+001 -7.730785e+000  1.415153e+001
      vertex  2.000000e+001 -7.750000e+000  1.395644e+001
      vertex  2.000000e+001 -7.730785e+000  1.415153e+001
    endloop
  endfacet
  facet normal  0.000000e+000 -9.569405e-001  2.902842e-001
    outer loop
      vertex  1.700000e+001 -7.730785e+000  1.415153e+001
      vertex  2.000000e+001 -7.730785e+000  1.415153e+001
      vertex  1.700000e+001 -7.673880e+000  1.433912e+001
    endloop
  endfacet
  facet normal  0.000000e+000 -9.569405e-001  2.902842e-001
    outer loop
      vertex  1.700000e+001 -7.673880e+000  1.433912e+001
      vertex  2.000000e+001 -7.730785e+000  1.415153e+001
      vertex  2.000000e+001 -7.673880e+000  1.433912e+001
    endloop
  endfacet
  facet normal  0.000000e+000 -8.819210e-001  4.713973e-001
    outer loop
      vertex  1.700000e+001 -7.673880e+000  1.433912e+001
      vertex  2.000000e+001 -7.673880e+000  1.433912e+001
      vertex  1.700000e+001 -7.581470e+000  1.451201e+001
    endloop
  endfacet
  facet normal  0.000000e+000 -8.819210e-001  4.713973e-001
    outer loop
      vertex  1.700000e+001 -7.581470e+000  1.451201e+001
      vertex  2.000000e+001 -7.673880e+000  1.433912e+001
      vertex  2.000000e+001 -7.581470e+000  1.451201e+001
    endloop
  endfacet
  facet normal  0.000000e+000 -7.730090e-001  6.343950e-001
    outer loop
      vertex  1.700000e+001 -7.581470e+000  1.451201e+001
      vertex  2.000000e+001 -7.581470e+000  1.451201e+001
      vertex  1.700000e+001 -7.457107e+000  1.466354e+001
    endloop
  endfacet
  facet normal  0.000000e+000 -7.730090e-001  6.343950e-001
    outer loop
      vertex  1.700000e+001 -7.457107e+000  1.466354e+001
      vertex  2.000000e+001 -7.581470e+000  1.451201e+001
      vertex  2.000000e+001 -7.457107e+000  1.466354e+001
    endloop
  endfacet
  facet normal  0.000000e+000 -6.343939e-001  7.730100e-001
    outer loop
      vertex  1.700000e+001 -7.457107e+000  1.466354e+001
      vertex  2.000000e+001 -7.457107e+000  1.466354e+001
      vertex  1.700000e+001 -7.305570e+000  1.478791e+001
    endloop
  endfacet
  facet normal  0.000000e+000 -6.343939e-001  7.730100e-001
    outer loop
      vertex  1.700000e+001 -7.305570e+000  1.478791e+001
      vertex  2.000000e+001 -7.457107e+000  1.466354e+001
      vertex  2.000000e+001 -7.305570e+000  1.478791e+001
    endloop
  endfacet
  facet normal  0.000000e+000 -4.713973e-001  8.819210e-001
    outer loop
      vertex  1.700000e+001 -7.305570e+000  1.478791e+001
      vertex  2.000000e+001 -7.305570e+000  1.478791e+001
      vertex  1.700000e+001 -7.132683e+000  1.488032e+001
    endloop
  endfacet
  facet normal  0.000000e+000 -4.713973e-001  8.819210e-001
    outer loop
      vertex  1.700000e+001 -7.132683e+000  1.488032e+001
      vertex  2.000000e+001 -7.305570e+000  1.478791e+001
      vertex  2.000000e+001 -7.132683e+000  1.488032e+001
    endloop
  endfacet
  facet normal  0.000000e+000 -2.902849e-001  9.569404e-001
    outer loop
      vertex  1.700000e+001 -7.132683e+000  1.488032e+001
      vertex  2.000000e+001 -7.132683e+000  1.488032e+001
      vertex  1.700000e+001 -6.945090e+000  1.493722e+001
    endloop
  endfacet
  facet normal  0.000000e+000 -2.902849e-001  9.569404e-001
    outer loop
      vertex  1.700000e+001 -6.945090e+000  1.493722e+001
      vertex  2.000000e+001 -7.132683e+000  1.488032e+001
      vertex  2.000000e+001 -6.945090e+000  1.493722e+001
    endloop
  endfacet
  facet normal  0.000000e+000 -9.801671e-002  9.951848e-001
    outer loop
      vertex  1.700000e+001 -6.945090e+000  1.493722e+001
      vertex  2.000000e+001 -6.945090e+000  1.493722e+001
      vertex  1.700000e+001 -6.750000e+000  1.495644e+001
    endloop
  endfacet
  facet normal  0.000000e+000 -9.801671e-002  9.951848e-001
    outer loop
      vertex  1.700000e+001 -6.750000e+000  1.495644e+001
      vertex  2.000000e+001 -6.945090e+000  1.493722e+001
      vertex  2.000000e+001 -6.750000e+000  1.495644e+001
    endloop
  endfacet
  facet normal  0.000000e+000  1.000000e+000  0.000000e+000
    outer loop
      vertex  0.000000e+000  7.750000e+000  1.956436e+000
      vertex  0.000000e+000  7.750000e+000  4.956436e+000
      vertex  2.000000e+001  7.750000e+000  1.956436e+000
    endloop
  endfacet
  facet normal  0.000000e+000  1.000000e+000  0.000000e+000
    outer loop
      vertex  2.000000e+001  7.750000e+000  1.956436e+000
      vertex  0.000000e+000  7.750000e+000  4.956436e+000
      vertex  1.700000e+001  7.750000e+000  4.956436e+000
    endloop
  endfacet
  facet normal  -0.000000e+000  1.000000e+000  0.000000e+000
    outer loop
      vertex  2.000000e+001  7.750000e+000  1.956436e+000
      vertex  1.700000e+001  7.750000e+000  4.956436e+000
      vertex  2.000000e+001  7.750000e+000  1.395644e+001
    endloop
  endfacet
  facet normal  0.000000e+000  1.000000e+000  0.000000e+000
    outer loop
      vertex  2.000000e+001  7.750000e+000  1.395644e+001
      vertex  1.700000e+001  7.750000e+000  4.956436e+000
      vertex  1.700000e+001  7.750000e+000  1.395644e+001
    endloop
  endfacet
  facet normal -1.000000e+000  0.000000e+000  0.000000e+000
    outer loop
      vertex  1.700000e+001  6.750000e+000  5.956436e+000
      vertex  1.700000e+001  4.750000e+000  5.956436e+000
      vertex  1.700000e+001  4.554910e+000  5.975651e+000
    endloop
  endfacet
  facet normal -1.000000e+000  0.000000e+000  0.000000e+000
    outer loop
      vertex  1.700000e+001  6.750000e+000  5.956436e+000
      vertex  1.700000e+001  4.554910e+000  5.975651e+000
      vertex  1.700000e+001  4.367317e+000  6.032557e+000
    endloop
  endfacet
  facet normal -1.000000e+000  0.000000e+000  0.000000e+000
    outer loop
      vertex  1.700000e+001  6.750000e+000  5.956436e+000
      vertex  1.700000e+001  4.367317e+000  6.032557e+000
      vertex  1.700000e+001  4.194430e+000  6.124967e+000
    endloop
  endfacet
  facet normal -1.000000e+000  0.000000e+000  0.000000e+000
    outer loop
      vertex  1.700000e+001  6.750000e+000  5.956436e+000
      vertex  1.700000e+001  4.194430e+000  6.124967e+000
      vertex  1.700000e+001  4.042893e+000  6.249330e+000
    endloop
  endfacet
  facet normal -1.000000e+000  0.000000e+000  0.000000e+000
    outer loop
      vertex  1.700000e+001  6.750000e+000  5.956436e+000
      vertex  1.700000e+001  4.042893e+000  6.249330e+000
      vertex  1.700000e+001  3.918530e+000  6.400866e+000
    endloop
  endfacet
  facet normal -1.000000e+000  0.000000e+000  0.000000e+000
    outer loop
      vertex  1.700000e+001  6.945090e+000  5.937222e+000
      vertex  1.700000e+001  6.750000e+000  5.956436e+000
      vertex  1.700000e+001  3.918530e+000  6.400866e+000
    endloop
  endfacet
  facet normal -9.999999e-001  0.000000e+000  0.000000e+000
    outer loop
      vertex  1.700000e+001  6.945090e+000  5.937222e+000
      vertex  1.700000e+001  3.918530e+000  6.400866e+000
      vertex  1.700000e+001  3.826120e+000  6.573753e+000
    endloop
  endfacet
  facet normal -9.999999e-001  0.000000e+000  0.000000e+000
    outer loop
      vertex  1.700000e+001  6.945090e+000  5.937222e+000
      vertex  1.700000e+001  3.826120e+000  6.573753e+000
      vertex  1.700000e+001  3.769215e+000  6.761346e+000
    endloop
  endfacet
  facet normal -1.000000e+000  0.000000e+000  0.000000e+000
    outer loop
      vertex  1.700000e+001  6.945090e+000  5.937222e+000
      vertex  1.700000e+001  3.769215e+000  6.761346e+000
      vertex  1.700000e+001  3.750000e+000  6.956436e+000
    endloop
  endfacet
  facet normal -1.000000e+000  0.000000e+000  0.000000e+000
    outer loop
      vertex  1.700000e+001  7.750000e+000  1.395644e+001
      vertex  1.700000e+001  7.750000e+000  4.956436e+000
      vertex  1.700000e+001  7.730785e+000  5.151526e+000
    endloop
  endfacet
  facet normal -1.000000e+000  0.000000e+000  0.000000e+000
    outer loop
      vertex  1.700000e+001  7.750000e+000  1.395644e+001
      vertex  1.700000e+001  7.730785e+000  5.151526e+000
      vertex  1.700000e+001  7.673880e+000  5.339119e+000
    endloop
  endfacet
  facet normal -1.000000e+000  0.000000e+000  0.000000e+000
    outer loop
      vertex  1.700000e+001  7.750000e+000  1.395644e+001
      vertex  1.700000e+001  7.673880e+000  5.339119e+000
      vertex  1.700000e+001  7.581470e+000  5.512006e+000
    endloop
  endfacet
  facet normal -1.000000e+000  0.000000e+000  0.000000e+000
    outer loop
      vertex  1.700000e+001  7.750000e+000  1.395644e+001
      vertex  1.700000e+001  7.581470e+000  5.512006e+000
      vertex  1.700000e+001  7.457107e+000  5.663543e+000
    endloop
  endfacet
  facet normal -1.000000e+000  0.000000e+000  0.000000e+000
    outer loop
      vertex  1.700000e+001  7.750000e+000  1.395644e+001
      vertex  1.700000e+001  7.457107e+000  5.663543e+000
      vertex  1.700000e+001  7.305570e+000  5.787906e+000
    endloop
  endfacet
  facet normal -1.000000e+000  0.000000e+000  0.000000e+000
    outer loop
      vertex  1.700000e+001  7.750000e+000  1.395644e+001
      vertex  1.700000e+001  7.305570e+000  5.787906e+000
      vertex  1.700000e+001  7.132683e+000  5.880316e+000
    endloop
  endfacet
  facet normal -1.000000e+000  0.000000e+000  0.000000e+000
    outer loop
      vertex  1.700000e+001  7.750000e+000  1.395644e+001
      vertex  1.700000e+001  7.132683e+000  5.880316e+000
      vertex  1.700000e+001  6.945090e+000  5.937222e+000
    endloop
  endfacet
  facet normal -1.000000e+000  0.000000e+000  0.000000e+000
    outer loop
      vertex  1.700000e+001  7.750000e+000  1.395644e+001
      vertex  1.700000e+001  6.945090e+000  5.937222e+000
      vertex  1.700000e+001  3.750000e+000  6.956436e+000
    endloop
  endfacet
  facet normal -1.000000e+000  0.000000e+000  0.000000e+000
    outer loop
      vertex  1.700000e+001  7.750000e+000  1.395644e+001
      vertex  1.700000e+001  3.750000e+000  6.956436e+000
      vertex  1.700000e+001  3.750000e+000  1.395644e+001
    endloop
  endfacet
  facet normal -1.000000e+000  0.000000e+000  0.000000e+000
    outer loop
      vertex  1.700000e+001  7.750000e+000  1.395644e+001
      vertex  1.700000e+001  3.750000e+000  1.395644e+001
      vertex  1.700000e+001  3.730785e+000  1.415153e+001
    endloop
  endfacet
  facet normal -1.000000e+000  0.000000e+000  0.000000e+000
    outer loop
      vertex  1.700000e+001  7.750000e+000  1.395644e+001
      vertex  1.700000e+001  3.730785e+000  1.415153e+001
      vertex  1.700000e+001  7.730785e+000  1.415153e+001
    endloop
  endfacet
  facet normal -1.000000e+000  0.000000e+000  0.000000e+000
    outer loop
      vertex  1.700000e+001  7.305570e+000  1.478791e+001
      vertex  1.700000e+001  3.132684e+000  1.488032e+001
      vertex  1.700000e+001  7.132683e+000  1.488032e+001
    endloop
  endfacet
  facet normal -9.999999e-001  0.000000e+000  0.000000e+000
    outer loop
      vertex  1.700000e+001  7.132683e+000  1.488032e+001
      vertex  1.700000e+001  3.132684e+000  1.488032e+001
      vertex  1.700000e+001  2.945090e+000  1.493722e+001
    endloop
  endfacet
  facet normal -1.000000e+000  0.000000e+000  0.000000e+000
    outer loop
      vertex  1.700000e+001  7.132683e+000  1.488032e+001
      vertex  1.700000e+001  2.945090e+000  1.493722e+001
      vertex  1.700000e+001  6.945090e+000  1.493722e+001
    endloop
  endfacet
  facet normal -1.000000e+000  0.000000e+000  0.000000e+000
    outer loop
      vertex  1.700000e+001  6.945090e+000  1.493722e+001
      vertex  1.700000e+001  2.945090e+000  1.493722e+001
      vertex  1.700000e+001  2.750000e+000  1.495644e+001
    endloop
  endfacet
  facet normal -1.000000e+000  0.000000e+000  0.000000e+000
    outer loop
      vertex  1.700000e+001  6.945090e+000  1.493722e+001
      vertex  1.700000e+001  2.750000e+000  1.495644e+001
      vertex  1.700000e+001  6.750000e+000  1.495644e+001
    endloop
  endfacet
  facet normal -1.000000e+000  0.000000e+000  0.000000e+000
    outer loop
      vertex  1.700000e+001  3.132684e+000  1.488032e+001
      vertex  1.700000e+001  7.305570e+000  1.478791e+001
      vertex  1.700000e+001  3.305570e+000  1.478791e+001
    endloop
  endfacet
  facet normal -1.000000e+000  0.000000e+000  0.000000e+000
    outer loop
      vertex  1.700000e+001  3.305570e+000  1.478791e+001
      vertex  1.700000e+001  7.305570e+000  1.478791e+001
      vertex  1.700000e+001  7.457107e+000  1.466354e+001
    endloop
  endfacet
  facet normal -1.000000e+000  0.000000e+000  0.000000e+000
    outer loop
      vertex  1.700000e+001  3.305570e+000  1.478791e+001
      vertex  1.700000e+001  7.457107e+000  1.466354e+001
      vertex  1.700000e+001  3.457107e+000  1.466354e+001
    endloop
  endfacet
  facet normal -1.000000e+000  0.000000e+000  0.000000e+000
    outer loop
      vertex  1.700000e+001  3.457107e+000  1.466354e+001
      vertex  1.700000e+001  7.457107e+000  1.466354e+001
      vertex  1.700000e+001  7.581470e+000  1.451201e+001
    endloop
  endfacet
  facet normal -1.000000e+000  0.000000e+000  0.000000e+000
    outer loop
      vertex  1.700000e+001  3.457107e+000  1.466354e+001
      vertex  1.700000e+001  7.581470e+000  1.451201e+001
      vertex  1.700000e+001  3.581470e+000  1.451201e+001
    endloop
  endfacet
  facet normal -1.000000e+000  0.000000e+000  0.000000e+000
    outer loop
      vertex  1.700000e+001  3.581470e+000  1.451201e+001
      vertex  1.700000e+001  7.581470e+000  1.451201e+001
      vertex  1.700000e+001  7.673880e+000  1.433912e+001
    endloop
  endfacet
  facet normal -1.000000e+000  0.000000e+000  0.000000e+000
    outer loop
      vertex  1.700000e+001  3.581470e+000  1.451201e+001
      vertex  1.700000e+001  7.673880e+000  1.433912e+001
      vertex  1.700000e+001  3.673880e+000  1.433912e+001
    endloop
  endfacet
  facet normal -1.000000e+000  0.000000e+000  0.000000e+000
    outer loop
      vertex  1.700000e+001  3.673880e+000  1.433912e+001
      vertex  1.700000e+001  7.673880e+000  1.433912e+001
      vertex  1.700000e+001  7.730785e+000  1.415153e+001
    endloop
  endfacet
  facet normal -1.000000e+000  0.000000e+000  0.000000e+000
    outer loop
      vertex  1.700000e+001  3.673880e+000  1.433912e+001
      vertex  1.700000e+001  7.730785e+000  1.415153e+001
      vertex  1.700000e+001  3.730785e+000  1.415153e+001
    endloop
  endfacet
  facet normal  0.000000e+000  9.801671e-002  9.951848e-001
    outer loop
      vertex  1.700000e+001  6.750000e+000  1.495644e+001
      vertex  2.000000e+001  6.750000e+000  1.495644e+001
      vertex  1.700000e+001  6.945090e+000  1.493722e+001
    endloop
  endfacet
  facet normal  -0.000000e+000  9.801671e-002  9.951848e-001
    outer loop
      vertex  1.700000e+001  6.945090e+000  1.493722e+001
      vertex  2.000000e+001  6.750000e+000  1.495644e+001
      vertex  2.000000e+001  6.945090e+000  1.493722e+001
    endloop
  endfacet
  facet normal  0.000000e+000  2.902849e-001  9.569404e-001
    outer loop
      vertex  1.700000e+001  6.945090e+000  1.493722e+001
      vertex  2.000000e+001  6.945090e+000  1.493722e+001
      vertex  1.700000e+001  7.132683e+000  1.488032e+001
    endloop
  endfacet
  facet normal  -0.000000e+000  2.902849e-001  9.569404e-001
    outer loop
      vertex  1.700000e+001  7.132683e+000  1.488032e+001
      vertex  2.000000e+001  6.945090e+000  1.493722e+001
      vertex  2.000000e+001  7.132683e+000  1.488032e+001
    endloop
  endfacet
  facet normal  0.000000e+000  4.713973e-001  8.819210e-001
    outer loop
      vertex  1.700000e+001  7.132683e+000  1.488032e+001
      vertex  2.000000e+001  7.132683e+000  1.488032e+001
      vertex  1.700000e+001  7.305570e+000  1.478791e+001
    endloop
  endfacet
  facet normal  -0.000000e+000  4.713973e-001  8.819210e-001
    outer loop
      vertex  1.700000e+001  7.305570e+000  1.478791e+001
      vertex  2.000000e+001  7.132683e+000  1.488032e+001
      vertex  2.000000e+001  7.305570e+000  1.478791e+001
    endloop
  endfacet
  facet normal  0.000000e+000  6.343939e-001  7.730100e-001
    outer loop
      vertex  1.700000e+001  7.305570e+000  1.478791e+001
      vertex  2.000000e+001  7.305570e+000  1.478791e+001
      vertex  1.700000e+001  7.457107e+000  1.466354e+001
    endloop
  endfacet
  facet normal  -0.000000e+000  6.343939e-001  7.730100e-001
    outer loop
      vertex  1.700000e+001  7.457107e+000  1.466354e+001
      vertex  2.000000e+001  7.305570e+000  1.478791e+001
      vertex  2.000000e+001  7.457107e+000  1.466354e+001
    endloop
  endfacet
  facet normal  0.000000e+000  7.730090e-001  6.343950e-001
    outer loop
      vertex  1.700000e+001  7.457107e+000  1.466354e+001
      vertex  2.000000e+001  7.457107e+000  1.466354e+001
      vertex  1.700000e+001  7.581470e+000  1.451201e+001
    endloop
  endfacet
  facet normal  -0.000000e+000  7.730090e-001  6.343950e-001
    outer loop
      vertex  1.700000e+001  7.581470e+000  1.451201e+001
      vertex  2.000000e+001  7.457107e+000  1.466354e+001
      vertex  2.000000e+001  7.581470e+000  1.451201e+001
    endloop
  endfacet
  facet normal  0.000000e+000  8.819210e-001  4.713973e-001
    outer loop
      vertex  1.700000e+001  7.581470e+000  1.451201e+001
      vertex  2.000000e+001  7.581470e+000  1.451201e+001
      vertex  1.700000e+001  7.673880e+000  1.433912e+001
    endloop
  endfacet
  facet normal  -0.000000e+000  8.819210e-001  4.713973e-001
    outer loop
      vertex  1.700000e+001  7.673880e+000  1.433912e+001
      vertex  2.000000e+001  7.581470e+000  1.451201e+001
      vertex  2.000000e+001  7.673880e+000  1.433912e+001
    endloop
  endfacet
  facet normal  0.000000e+000  9.569405e-001  2.902842e-001
    outer loop
      vertex  1.700000e+001  7.673880e+000  1.433912e+001
      vertex  2.000000e+001  7.673880e+000  1.433912e+001
      vertex  1.700000e+001  7.730785e+000  1.415153e+001
    endloop
  endfacet
  facet normal  -0.000000e+000  9.569405e-001  2.902842e-001
    outer loop
      vertex  1.700000e+001  7.730785e+000  1.415153e+001
      vertex  2.000000e+001  7.673880e+000  1.433912e+001
      vertex  2.000000e+001  7.730785e+000  1.415153e+001
    endloop
  endfacet
  facet normal  0.000000e+000  9.951848e-001  9.801671e-002
    outer loop
      vertex  1.700000e+001  7.730785e+000  1.415153e+001
      vertex  2.000000e+001  7.730785e+000  1.415153e+001
      vertex  1.700000e+001  7.750000e+000  1.395644e+001
    endloop
  endfacet
  facet normal  -0.000000e+000  9.951848e-001  9.801671e-002
    outer loop
      vertex  1.700000e+001  7.750000e+000  1.395644e+001
      vertex  2.000000e+001  7.730785e+000  1.415153e+001
      vertex  2.000000e+001  7.750000e+000  1.395644e+001
    endloop
  endfacet
  facet normal -1.000000e+000  0.000000e+000  -0.000000e+000
    outer loop
      vertex  0.000000e+000 -6.945090e+000  5.937222e+000
      vertex  0.000000e+000 -6.750000e+000  5.956436e+000
      vertex  0.000000e+000 -5.250000e+000  5.956436e+000
    endloop
  endfacet
  facet normal -1.000000e+000  0.000000e+000  -0.000000e+000
    outer loop
      vertex  0.000000e+000 -6.945090e+000  5.937222e+000
      vertex  0.000000e+000 -5.250000e+000  5.956436e+000
      vertex  0.000000e+000  4.750000e+000  5.956436e+000
    endloop
  endfacet
  facet normal -1.000000e+000  0.000000e+000  -0.000000e+000
    outer loop
      vertex  0.000000e+000 -6.945090e+000  5.937222e+000
      vertex  0.000000e+000  4.750000e+000  5.956436e+000
      vertex  0.000000e+000  6.750000e+000  5.956436e+000
    endloop
  endfacet
  facet normal -1.000000e+000  0.000000e+000  -0.000000e+000
    outer loop
      vertex  0.000000e+000 -6.945090e+000  5.937222e+000
      vertex  0.000000e+000  6.750000e+000  5.956436e+000
      vertex  0.000000e+000  6.945090e+000  5.937222e+000
    endloop
  endfacet
  facet normal -1.000000e+000  -0.000000e+000  -0.000000e+000
    outer loop
      vertex  0.000000e+000 -6.945090e+000  5.937222e+000
      vertex  0.000000e+000  6.945090e+000  5.937222e+000
      vertex  0.000000e+000  7.132683e+000  5.880316e+000
    endloop
  endfacet
  facet normal -1.000000e+000  0.000000e+000  0.000000e+000
    outer loop
      vertex  0.000000e+000 -6.945090e+000  5.937222e+000
      vertex  0.000000e+000  7.132683e+000  5.880316e+000
      vertex  0.000000e+000 -7.132683e+000  5.880316e+000
    endloop
  endfacet
  facet normal -1.000000e+000  0.000000e+000  0.000000e+000
    outer loop
      vertex  0.000000e+000  3.750000e+000  1.395644e+001
      vertex  0.000000e+000 -4.230785e+000  1.415153e+001
      vertex  0.000000e+000  3.730785e+000  1.415153e+001
    endloop
  endfacet
  facet normal -1.000000e+000  0.000000e+000  0.000000e+000
    outer loop
      vertex  0.000000e+000  3.730785e+000  1.415153e+001
      vertex  0.000000e+000 -4.230785e+000  1.415153e+001
      vertex  0.000000e+000 -4.173880e+000  1.433912e+001
    endloop
  endfacet
  facet normal -1.000000e+000  0.000000e+000  0.000000e+000
    outer loop
      vertex  0.000000e+000  3.730785e+000  1.415153e+001
      vertex  0.000000e+000 -4.173880e+000  1.433912e+001
      vertex  0.000000e+000  3.673880e+000  1.433912e+001
    endloop
  endfacet
  facet normal -1.000000e+000  0.000000e+000  0.000000e+000
    outer loop
      vertex  0.000000e+000  3.673880e+000  1.433912e+001
      vertex  0.000000e+000 -4.173880e+000  1.433912e+001
      vertex  0.000000e+000 -4.081470e+000  1.451201e+001
    endloop
  endfacet
  facet normal -1.000000e+000  0.000000e+000  0.000000e+000
    outer loop
      vertex  0.000000e+000  3.673880e+000  1.433912e+001
      vertex  0.000000e+000 -4.081470e+000  1.451201e+001
      vertex  0.000000e+000  3.581470e+000  1.451201e+001
    endloop
  endfacet
  facet normal -1.000000e+000  0.000000e+000  0.000000e+000
    outer loop
      vertex  0.000000e+000  3.581470e+000  1.451201e+001
      vertex  0.000000e+000 -4.081470e+000  1.451201e+001
      vertex  0.000000e+000 -3.957107e+000  1.466354e+001
    endloop
  endfacet
  facet normal -1.000000e+000  0.000000e+000  0.000000e+000
    outer loop
      vertex  0.000000e+000  3.581470e+000  1.451201e+001
      vertex  0.000000e+000 -3.957107e+000  1.466354e+001
      vertex  0.000000e+000  3.457107e+000  1.466354e+001
    endloop
  endfacet
  facet normal -1.000000e+000  0.000000e+000  0.000000e+000
    outer loop
      vertex  0.000000e+000  3.457107e+000  1.466354e+001
      vertex  0.000000e+000 -3.957107e+000  1.466354e+001
      vertex  0.000000e+000 -3.805570e+000  1.478791e+001
    endloop
  endfacet
  facet normal -1.000000e+000  0.000000e+000  0.000000e+000
    outer loop
      vertex  0.000000e+000  3.457107e+000  1.466354e+001
      vertex  0.000000e+000 -3.805570e+000  1.478791e+001
      vertex  0.000000e+000  3.305570e+000  1.478791e+001
    endloop
  endfacet
  facet normal -9.999999e-001  0.000000e+000  0.000000e+000
    outer loop
      vertex  0.000000e+000  3.305570e+000  1.478791e+001
      vertex  0.000000e+000 -3.805570e+000  1.478791e+001
      vertex  0.000000e+000 -3.632684e+000  1.488032e+001
    endloop
  endfacet
  facet normal -1.000000e+000  0.000000e+000  0.000000e+000
    outer loop
      vertex  0.000000e+000  3.305570e+000  1.478791e+001
      vertex  0.000000e+000 -3.632684e+000  1.488032e+001
      vertex  0.000000e+000  3.132684e+000  1.488032e+001
    endloop
  endfacet
  facet normal -1.000000e+000  0.000000e+000  0.000000e+000
    outer loop
      vertex  0.000000e+000  3.132684e+000  1.488032e+001
      vertex  0.000000e+000 -3.632684e+000  1.488032e+001
      vertex  0.000000e+000 -3.445090e+000  1.493722e+001
    endloop
  endfacet
  facet normal -1.000000e+000  0.000000e+000  0.000000e+000
    outer loop
      vertex  0.000000e+000  3.132684e+000  1.488032e+001
      vertex  0.000000e+000 -3.445090e+000  1.493722e+001
      vertex  0.000000e+000  2.945090e+000  1.493722e+001
    endloop
  endfacet
  facet normal -1.000000e+000  0.000000e+000  0.000000e+000
    outer loop
      vertex  0.000000e+000  2.945090e+000  1.493722e+001
      vertex  0.000000e+000 -3.445090e+000  1.493722e+001
      vertex  0.000000e+000 -3.250000e+000  1.495644e+001
    endloop
  endfacet
  facet normal -1.000000e+000  0.000000e+000  0.000000e+000
    outer loop
      vertex  0.000000e+000  2.945090e+000  1.493722e+001
      vertex  0.000000e+000 -3.250000e+000  1.495644e+001
      vertex  0.000000e+000  2.750000e+000  1.495644e+001
    endloop
  endfacet
  facet normal -1.000000e+000  0.000000e+000  0.000000e+000
    outer loop
      vertex  0.000000e+000 -4.230785e+000  1.415153e+001
      vertex  0.000000e+000  3.750000e+000  1.395644e+001
      vertex  0.000000e+000 -4.250000e+000  1.395644e+001
    endloop
  endfacet
  facet normal -1.000000e+000  0.000000e+000  0.000000e+000
    outer loop
      vertex  0.000000e+000 -4.250000e+000  1.395644e+001
      vertex  0.000000e+000  3.750000e+000  1.395644e+001
      vertex  0.000000e+000  3.750000e+000  6.956436e+000
    endloop
  endfacet
  facet normal -1.000000e+000  0.000000e+000  0.000000e+000
    outer loop
      vertex  0.000000e+000 -4.250000e+000  1.395644e+001
      vertex  0.000000e+000  3.750000e+000  6.956436e+000
      vertex  0.000000e+000 -4.250000e+000  6.956436e+000
    endloop
  endfacet
  facet normal -1.000000e+000  0.000000e+000  0.000000e+000
    outer loop
      vertex  0.000000e+000 -4.250000e+000  6.956436e+000
      vertex  0.000000e+000  3.750000e+000  6.956436e+000
      vertex  0.000000e+000  3.769215e+000  6.761346e+000
    endloop
  endfacet
  facet normal -1.000000e+000  0.000000e+000  0.000000e+000
    outer loop
      vertex  0.000000e+000 -4.250000e+000  6.956436e+000
      vertex  0.000000e+000  3.769215e+000  6.761346e+000
      vertex  0.000000e+000 -4.269215e+000  6.761346e+000
    endloop
  endfacet
  facet normal -1.000000e+000  0.000000e+000  0.000000e+000
    outer loop
      vertex  0.000000e+000 -4.269215e+000  6.761346e+000
      vertex  0.000000e+000  3.769215e+000  6.761346e+000
      vertex  0.000000e+000  3.826120e+000  6.573753e+000
    endloop
  endfacet
  facet normal -1.000000e+000  0.000000e+000  0.000000e+000
    outer loop
      vertex  0.000000e+000 -4.269215e+000  6.761346e+000
      vertex  0.000000e+000  3.826120e+000  6.573753e+000
      vertex  0.000000e+000 -4.326120e+000  6.573753e+000
    endloop
  endfacet
  facet normal -9.999999e-001  0.000000e+000  0.000000e+000
    outer loop
      vertex  0.000000e+000 -4.326120e+000  6.573753e+000
      vertex  0.000000e+000  3.826120e+000  6.573753e+000
      vertex  0.000000e+000  3.918530e+000  6.400866e+000
    endloop
  endfacet
  facet normal -1.000000e+000  0.000000e+000  0.000000e+000
    outer loop
      vertex  0.000000e+000 -4.326120e+000  6.573753e+000
      vertex  0.000000e+000  3.918530e+000  6.400866e+000
      vertex  0.000000e+000 -4.418530e+000  6.400866e+000
    endloop
  endfacet
  facet normal -1.000000e+000  0.000000e+000  0.000000e+000
    outer loop
      vertex  0.000000e+000 -4.418530e+000  6.400866e+000
      vertex  0.000000e+000  3.918530e+000  6.400866e+000
      vertex  0.000000e+000  4.042893e+000  6.249330e+000
    endloop
  endfacet
  facet normal -1.000000e+000  0.000000e+000  0.000000e+000
    outer loop
      vertex  0.000000e+000 -4.418530e+000  6.400866e+000
      vertex  0.000000e+000  4.042893e+000  6.249330e+000
      vertex  0.000000e+000 -4.542893e+000  6.249330e+000
    endloop
  endfacet
  facet normal -1.000000e+000  0.000000e+000  0.000000e+000
    outer loop
      vertex  0.000000e+000 -4.542893e+000  6.249330e+000
      vertex  0.000000e+000  4.042893e+000  6.249330e+000
      vertex  0.000000e+000  4.194430e+000  6.124967e+000
    endloop
  endfacet
  facet normal -1.000000e+000  0.000000e+000  0.000000e+000
    outer loop
      vertex  0.000000e+000 -4.542893e+000  6.249330e+000
      vertex  0.000000e+000  4.194430e+000  6.124967e+000
      vertex  0.000000e+000 -4.694430e+000  6.124967e+000
    endloop
  endfacet
  facet normal -1.000000e+000  0.000000e+000  0.000000e+000
    outer loop
      vertex  0.000000e+000 -4.694430e+000  6.124967e+000
      vertex  0.000000e+000  4.194430e+000  6.124967e+000
      vertex  0.000000e+000  4.367317e+000  6.032557e+000
    endloop
  endfacet
  facet normal -1.000000e+000  0.000000e+000  0.000000e+000
    outer loop
      vertex  0.000000e+000 -4.694430e+000  6.124967e+000
      vertex  0.000000e+000  4.367317e+000  6.032557e+000
      vertex  0.000000e+000 -4.867317e+000  6.032557e+000
    endloop
  endfacet
  facet normal -1.000000e+000  0.000000e+000  0.000000e+000
    outer loop
      vertex  0.000000e+000 -4.867317e+000  6.032557e+000
      vertex  0.000000e+000  4.367317e+000  6.032557e+000
      vertex  0.000000e+000  4.554910e+000  5.975651e+000
    endloop
  endfacet
  facet normal -1.000000e+000  0.000000e+000  0.000000e+000
    outer loop
      vertex  0.000000e+000 -4.867317e+000  6.032557e+000
      vertex  0.000000e+000  4.554910e+000  5.975651e+000
      vertex  0.000000e+000 -5.054910e+000  5.975651e+000
    endloop
  endfacet
  facet normal -1.000000e+000  0.000000e+000  0.000000e+000
    outer loop
      vertex  0.000000e+000 -5.054910e+000  5.975651e+000
      vertex  0.000000e+000  4.554910e+000  5.975651e+000
      vertex  0.000000e+000  4.750000e+000  5.956436e+000
    endloop
  endfacet
  facet normal -1.000000e+000  0.000000e+000  0.000000e+000
    outer loop
      vertex  0.000000e+000 -5.054910e+000  5.975651e+000
      vertex  0.000000e+000  4.750000e+000  5.956436e+000
      vertex  0.000000e+000 -5.250000e+000  5.956436e+000
    endloop
  endfacet
  facet normal -1.000000e+000  0.000000e+000  0.000000e+000
    outer loop
      vertex  0.000000e+000  7.750000e+000  1.956436e+000
      vertex  0.000000e+000 -7.750000e+000  4.956436e+000
      vertex  0.000000e+000  7.750000e+000  4.956436e+000
    endloop
  endfacet
  facet normal -1.000000e+000  0.000000e+000  0.000000e+000
    outer loop
      vertex  0.000000e+000  7.750000e+000  4.956436e+000
      vertex  0.000000e+000 -7.750000e+000  4.956436e+000
      vertex  0.000000e+000 -7.730785e+000  5.151526e+000
    endloop
  endfacet
  facet normal -1.000000e+000  0.000000e+000  0.000000e+000
    outer loop
      vertex  0.000000e+000  7.750000e+000  4.956436e+000
      vertex  0.000000e+000 -7.730785e+000  5.151526e+000
      vertex  0.000000e+000  7.730785e+000  5.151526e+000
    endloop
  endfacet
  facet normal -1.000000e+000  0.000000e+000  0.000000e+000
    outer loop
      vertex  0.000000e+000  7.730785e+000  5.151526e+000
      vertex  0.000000e+000 -7.730785e+000  5.151526e+000
      vertex  0.000000e+000 -7.673880e+000  5.339119e+000
    endloop
  endfacet
  facet normal -1.000000e+000  0.000000e+000  0.000000e+000
    outer loop
      vertex  0.000000e+000  7.730785e+000  5.151526e+000
      vertex  0.000000e+000 -7.673880e+000  5.339119e+000
      vertex  0.000000e+000  7.673880e+000  5.339119e+000
    endloop
  endfacet
  facet normal -1.000000e+000  0.000000e+000  0.000000e+000
    outer loop
      vertex  0.000000e+000  7.673880e+000  5.339119e+000
      vertex  0.000000e+000 -7.673880e+000  5.339119e+000
      vertex  0.000000e+000 -7.581470e+000  5.512006e+000
    endloop
  endfacet
  facet normal -1.000000e+000  0.000000e+000  0.000000e+000
    outer loop
      vertex  0.000000e+000  7.673880e+000  5.339119e+000
      vertex  0.000000e+000 -7.581470e+000  5.512006e+000
      vertex  0.000000e+000  7.581470e+000  5.512006e+000
    endloop
  endfacet
  facet normal -1.000000e+000  0.000000e+000  0.000000e+000
    outer loop
      vertex  0.000000e+000  7.581470e+000  5.512006e+000
      vertex  0.000000e+000 -7.581470e+000  5.512006e+000
      vertex  0.000000e+000 -7.457107e+000  5.663543e+000
    endloop
  endfacet
  facet normal -1.000000e+000  0.000000e+000  0.000000e+000
    outer loop
      vertex  0.000000e+000  7.581470e+000  5.512006e+000
      vertex  0.000000e+000 -7.457107e+000  5.663543e+000
      vertex  0.000000e+000  7.457107e+000  5.663543e+000
    endloop
  endfacet
  facet normal -9.999999e-001  0.000000e+000  0.000000e+000
    outer loop
      vertex  0.000000e+000  7.457107e+000  5.663543e+000
      vertex  0.000000e+000 -7.457107e+000  5.663543e+000
      vertex  0.000000e+000 -7.305570e+000  5.787906e+000
    endloop
  endfacet
  facet normal -1.000000e+000  0.000000e+000  0.000000e+000
    outer loop
      vertex  0.000000e+000  7.457107e+000  5.663543e+000
      vertex  0.000000e+000 -7.305570e+000  5.787906e+000
      vertex  0.000000e+000  7.305570e+000  5.787906e+000
    endloop
  endfacet
  facet normal -9.999999e-001  0.000000e+000  0.000000e+000
    outer loop
      vertex  0.000000e+000  7.305570e+000  5.787906e+000
      vertex  0.000000e+000 -7.305570e+000  5.787906e+000
      vertex  0.000000e+000 -7.132683e+000  5.880316e+000
    endloop
  endfacet
  facet normal -1.000000e+000  0.000000e+000  0.000000e+000
    outer loop
      vertex  0.000000e+000  7.305570e+000  5.787906e+000
      vertex  0.000000e+000 -7.132683e+000  5.880316e+000
      vertex  0.000000e+000  7.132683e+000  5.880316e+000
    endloop
  endfacet
  facet normal -1.000000e+000  0.000000e+000  0.000000e+000
    outer loop
      vertex  0.000000e+000 -7.750000e+000  4.956436e+000
      vertex  0.000000e+000  7.750000e+000  1.956436e+000
      vertex  0.000000e+000 -7.750000e+000  1.956436e+000
    endloop
  endfacet
  facet normal -1.000000e+000  0.000000e+000  0.000000e+000
    outer loop
      vertex  0.000000e+000 -7.750000e+000  1.956436e+000
      vertex  0.000000e+000  7.750000e+000  1.956436e+000
      vertex  0.000000e+000  7.730785e+000  1.761346e+000
    endloop
  endfacet
  facet normal -1.000000e+000  0.000000e+000  0.000000e+000
    outer loop
      vertex  0.000000e+000 -7.750000e+000  1.956436e+000
      vertex  0.000000e+000  7.730785e+000  1.761346e+000
      vertex  0.000000e+000 -7.730785e+000  1.761346e+000
    endloop
  endfacet
  facet normal -1.000000e+000  0.000000e+000  0.000000e+000
    outer loop
      vertex  0.000000e+000 -7.730785e+000  1.761346e+000
      vertex  0.000000e+000  7.730785e+000  1.761346e+000
      vertex  0.000000e+000  7.673880e+000  1.573753e+000
    endloop
  endfacet
  facet normal -1.000000e+000  0.000000e+000  0.000000e+000
    outer loop
      vertex  0.000000e+000 -7.730785e+000  1.761346e+000
      vertex  0.000000e+000  7.673880e+000  1.573753e+000
      vertex  0.000000e+000 -7.673880e+000  1.573753e+000
    endloop
  endfacet
  facet normal -1.000000e+000  0.000000e+000  0.000000e+000
    outer loop
      vertex  0.000000e+000 -7.673880e+000  1.573753e+000
      vertex  0.000000e+000  7.673880e+000  1.573753e+000
      vertex  0.000000e+000  7.581470e+000  1.400866e+000
    endloop
  endfacet
  facet normal -1.000000e+000  0.000000e+000  0.000000e+000
    outer loop
      vertex  0.000000e+000 -7.673880e+000  1.573753e+000
      vertex  0.000000e+000  7.581470e+000  1.400866e+000
      vertex  0.000000e+000 -7.581470e+000  1.400866e+000
    endloop
  endfacet
  facet normal -1.000000e+000  0.000000e+000  0.000000e+000
    outer loop
      vertex  0.000000e+000 -7.581470e+000  1.400866e+000
      vertex  0.000000e+000  7.581470e+000  1.400866e+000
      vertex  0.000000e+000  7.457107e+000  1.249329e+000
    endloop
  endfacet
  facet normal -1.000000e+000  0.000000e+000  0.000000e+000
    outer loop
      vertex  0.000000e+000 -7.581470e+000  1.400866e+000
      vertex  0.000000e+000  7.457107e+000  1.249329e+000
      vertex  0.000000e+000 -7.457107e+000  1.249329e+000
    endloop
  endfacet
  facet normal -9.999999e-001  0.000000e+000  0.000000e+000
    outer loop
      vertex  0.000000e+000 -7.457107e+000  1.249329e+000
      vertex  0.000000e+000  7.457107e+000  1.249329e+000
      vertex  0.000000e+000  7.305570e+000  1.124967e+000
    endloop
  endfacet
  facet normal -1.000000e+000  0.000000e+000  0.000000e+000
    outer loop
      vertex  0.000000e+000 -7.457107e+000  1.249329e+000
      vertex  0.000000e+000  7.305570e+000  1.124967e+000
      vertex  0.000000e+000 -7.305570e+000  1.124967e+000
    endloop
  endfacet
  facet normal -1.000000e+000  0.000000e+000  0.000000e+000
    outer loop
      vertex  0.000000e+000 -7.305570e+000  1.124967e+000
      vertex  0.000000e+000  7.305570e+000  1.124967e+000
      vertex  0.000000e+000  7.132683e+000  1.032557e+000
    endloop
  endfacet
  facet normal -1.000000e+000  0.000000e+000  0.000000e+000
    outer loop
      vertex  0.000000e+000 -7.305570e+000  1.124967e+000
      vertex  0.000000e+000  7.132683e+000  1.032557e+000
      vertex  0.000000e+000 -7.132683e+000  1.032557e+000
    endloop
  endfacet
  facet normal -1.000000e+000  0.000000e+000  0.000000e+000
    outer loop
      vertex  0.000000e+000 -7.132683e+000  1.032557e+000
      vertex  0.000000e+000  7.132683e+000  1.032557e+000
      vertex  0.000000e+000  6.945090e+000  9.756509e-001
    endloop
  endfacet
  facet normal -1.000000e+000  0.000000e+000  0.000000e+000
    outer loop
      vertex  0.000000e+000 -7.132683e+000  1.032557e+000
      vertex  0.000000e+000  6.945090e+000  9.756509e-001
      vertex  0.000000e+000 -6.945090e+000  9.756509e-001
    endloop
  endfacet
  facet normal -1.000000e+000  0.000000e+000  0.000000e+000
    outer loop
      vertex  0.000000e+000 -6.945090e+000  9.756509e-001
      vertex  0.000000e+000  6.945090e+000  9.756509e-001
      vertex  0.000000e+000  6.750000e+000  9.564362e-001
    endloop
  endfacet
  facet normal -1.000000e+000  0.000000e+000  0.000000e+000
    outer loop
      vertex  0.000000e+000 -6.945090e+000  9.756509e-001
      vertex  0.000000e+000  6.750000e+000  9.564362e-001
      vertex  0.000000e+000 -6.750000e+000  9.564362e-001
    endloop
  endfacet
  facet normal  0.000000e+000  0.000000e+000 -1.000000e+000
    outer loop
      vertex  0.000000e+000 -6.750000e+000  9.564362e-001
      vertex  0.000000e+000  6.750000e+000  9.564362e-001
      vertex  2.000000e+001 -6.750000e+000  9.564362e-001
    endloop
  endfacet
  facet normal  0.000000e+000  0.000000e+000 -1.000000e+000
    outer loop
      vertex  2.000000e+001 -6.750000e+000  9.564362e-001
      vertex  0.000000e+000  6.750000e+000  9.564362e-001
      vertex  2.000000e+001  6.750000e+000  9.564362e-001
    endloop
  endfacet
  facet normal  -0.000000e+000 -9.801730e-002 -9.951847e-001
    outer loop
      vertex  0.000000e+000 -6.750000e+000  9.564362e-001
      vertex  2.000000e+001 -6.750000e+000  9.564362e-001
      vertex  0.000000e+000 -6.945090e+000  9.756509e-001
    endloop
  endfacet
  facet normal  0.000000e+000 -9.801730e-002 -9.951847e-001
    outer loop
      vertex  0.000000e+000 -6.945090e+000  9.756509e-001
      vertex  2.000000e+001 -6.750000e+000  9.564362e-001
      vertex  2.000000e+001 -6.945090e+000  9.756509e-001
    endloop
  endfacet
  facet normal  -0.000000e+000 -2.902849e-001 -9.569404e-001
    outer loop
      vertex  0.000000e+000 -6.945090e+000  9.756509e-001
      vertex  2.000000e+001 -6.945090e+000  9.756509e-001
      vertex  0.000000e+000 -7.132683e+000  1.032557e+000
    endloop
  endfacet
  facet normal  0.000000e+000 -2.902849e-001 -9.569404e-001
    outer loop
      vertex  0.000000e+000 -7.132683e+000  1.032557e+000
      vertex  2.000000e+001 -6.945090e+000  9.756509e-001
      vertex  2.000000e+001 -7.132683e+000  1.032557e+000
    endloop
  endfacet
  facet normal  -0.000000e+000 -4.713964e-001 -8.819215e-001
    outer loop
      vertex  0.000000e+000 -7.132683e+000  1.032557e+000
      vertex  2.000000e+001 -7.132683e+000  1.032557e+000
      vertex  0.000000e+000 -7.305570e+000  1.124967e+000
    endloop
  endfacet
  facet normal  0.000000e+000 -4.713964e-001 -8.819215e-001
    outer loop
      vertex  0.000000e+000 -7.305570e+000  1.124967e+000
      vertex  2.000000e+001 -7.132683e+000  1.032557e+000
      vertex  2.000000e+001 -7.305570e+000  1.124967e+000
    endloop
  endfacet
  facet normal  -0.000000e+000 -6.343935e-001 -7.730103e-001
    outer loop
      vertex  0.000000e+000 -7.305570e+000  1.124967e+000
      vertex  2.000000e+001 -7.305570e+000  1.124967e+000
      vertex  0.000000e+000 -7.457107e+000  1.249329e+000
    endloop
  endfacet
  facet normal  0.000000e+000 -6.343935e-001 -7.730103e-001
    outer loop
      vertex  0.000000e+000 -7.457107e+000  1.249329e+000
      vertex  2.000000e+001 -7.305570e+000  1.124967e+000
      vertex  2.000000e+001 -7.457107e+000  1.249329e+000
    endloop
  endfacet
  facet normal  -0.000000e+000 -7.730103e-001 -6.343936e-001
    outer loop
      vertex  0.000000e+000 -7.457107e+000  1.249329e+000
      vertex  2.000000e+001 -7.457107e+000  1.249329e+000
      vertex  0.000000e+000 -7.581470e+000  1.400866e+000
    endloop
  endfacet
  facet normal  0.000000e+000 -7.730103e-001 -6.343936e-001
    outer loop
      vertex  0.000000e+000 -7.581470e+000  1.400866e+000
      vertex  2.000000e+001 -7.457107e+000  1.249329e+000
      vertex  2.000000e+001 -7.581470e+000  1.400866e+000
    endloop
  endfacet
  facet normal  -0.000000e+000 -8.819210e-001 -4.713973e-001
    outer loop
      vertex  0.000000e+000 -7.581470e+000  1.400866e+000
      vertex  2.000000e+001 -7.581470e+000  1.400866e+000
      vertex  0.000000e+000 -7.673880e+000  1.573753e+000
    endloop
  endfacet
  facet normal  0.000000e+000 -8.819210e-001 -4.713973e-001
    outer loop
      vertex  0.000000e+000 -7.673880e+000  1.573753e+000
      vertex  2.000000e+001 -7.581470e+000  1.400866e+000
      vertex  2.000000e+001 -7.673880e+000  1.573753e+000
    endloop
  endfacet
  facet normal  -0.000000e+000 -9.569404e-001 -2.902847e-001
    outer loop
      vertex  0.000000e+000 -7.673880e+000  1.573753e+000
      vertex  2.000000e+001 -7.673880e+000  1.573753e+000
      vertex  0.000000e+000 -7.730785e+000  1.761346e+000
    endloop
  endfacet
  facet normal  0.000000e+000 -9.569404e-001 -2.902847e-001
    outer loop
      vertex  0.000000e+000 -7.730785e+000  1.761346e+000
      vertex  2.000000e+001 -7.673880e+000  1.573753e+000
      vertex  2.000000e+001 -7.730785e+000  1.761346e+000
    endloop
  endfacet
  facet normal  -0.000000e+000 -9.951848e-001 -9.801670e-002
    outer loop
      vertex  0.000000e+000 -7.730785e+000  1.761346e+000
      vertex  2.000000e+001 -7.730785e+000  1.761346e+000
      vertex  0.000000e+000 -7.750000e+000  1.956436e+000
    endloop
  endfacet
  facet normal  0.000000e+000 -9.951848e-001 -9.801670e-002
    outer loop
      vertex  0.000000e+000 -7.750000e+000  1.956436e+000
      vertex  2.000000e+001 -7.730785e+000  1.761346e+000
      vertex  2.000000e+001 -7.750000e+000  1.956436e+000
    endloop
  endfacet
  facet normal  0.000000e+000  0.000000e+000  1.000000e+000
    outer loop
      vertex  0.000000e+000 -5.250000e+000  5.956436e+000
      vertex  0.000000e+000 -6.750000e+000  5.956436e+000
      vertex  1.700000e+001 -5.250000e+000  5.956436e+000
    endloop
  endfacet
  facet normal  0.000000e+000  0.000000e+000  1.000000e+000
    outer loop
      vertex  1.700000e+001 -5.250000e+000  5.956436e+000
      vertex  0.000000e+000 -6.750000e+000  5.956436e+000
      vertex  1.700000e+001 -6.750000e+000  5.956436e+000
    endloop
  endfacet
  facet normal  0.000000e+000 -9.951848e-001  9.801671e-002
    outer loop
      vertex  0.000000e+000 -7.750000e+000  4.956436e+000
      vertex  1.700000e+001 -7.750000e+000  4.956436e+000
      vertex  0.000000e+000 -7.730785e+000  5.151526e+000
    endloop
  endfacet
  facet normal  0.000000e+000 -9.951848e-001  9.801671e-002
    outer loop
      vertex  0.000000e+000 -7.730785e+000  5.151526e+000
      vertex  1.700000e+001 -7.750000e+000  4.956436e+000
      vertex  1.700000e+001 -7.730785e+000  5.151526e+000
    endloop
  endfacet
  facet normal  0.000000e+000 -9.569403e-001  2.902848e-001
    outer loop
      vertex  0.000000e+000 -7.730785e+000  5.151526e+000
      vertex  1.700000e+001 -7.730785e+000  5.151526e+000
      vertex  0.000000e+000 -7.673880e+000  5.339119e+000
    endloop
  endfacet
  facet normal  0.000000e+000 -9.569403e-001  2.902848e-001
    outer loop
      vertex  0.000000e+000 -7.673880e+000  5.339119e+000
      vertex  1.700000e+001 -7.730785e+000  5.151526e+000
      vertex  1.700000e+001 -7.673880e+000  5.339119e+000
    endloop
  endfacet
  facet normal  0.000000e+000 -8.819209e-001  4.713973e-001
    outer loop
      vertex  0.000000e+000 -7.673880e+000  5.339119e+000
      vertex  1.700000e+001 -7.673880e+000  5.339119e+000
      vertex  0.000000e+000 -7.581470e+000  5.512006e+000
    endloop
  endfacet
  facet normal  0.000000e+000 -8.819209e-001  4.713973e-001
    outer loop
      vertex  0.000000e+000 -7.581470e+000  5.512006e+000
      vertex  1.700000e+001 -7.673880e+000  5.339119e+000
      vertex  1.700000e+001 -7.581470e+000  5.512006e+000
    endloop
  endfacet
  facet normal  0.000000e+000 -7.730100e-001  6.343938e-001
    outer loop
      vertex  0.000000e+000 -7.581470e+000  5.512006e+000
      vertex  1.700000e+001 -7.581470e+000  5.512006e+000
      vertex  0.000000e+000 -7.457107e+000  5.663543e+000
    endloop
  endfacet
  facet normal  0.000000e+000 -7.730100e-001  6.343938e-001
    outer loop
      vertex  0.000000e+000 -7.457107e+000  5.663543e+000
      vertex  1.700000e+001 -7.581470e+000  5.512006e+000
      vertex  1.700000e+001 -7.457107e+000  5.663543e+000
    endloop
  endfacet
  facet normal  0.000000e+000 -6.343938e-001  7.730100e-001
    outer loop
      vertex  0.000000e+000 -7.457107e+000  5.663543e+000
      vertex  1.700000e+001 -7.457107e+000  5.663543e+000
      vertex  0.000000e+000 -7.305570e+000  5.787906e+000
    endloop
  endfacet
  facet normal  0.000000e+000 -6.343938e-001  7.730100e-001
    outer loop
      vertex  0.000000e+000 -7.305570e+000  5.787906e+000
      vertex  1.700000e+001 -7.457107e+000  5.663543e+000
      vertex  1.700000e+001 -7.305570e+000  5.787906e+000
    endloop
  endfacet
  facet normal  0.000000e+000 -4.713973e-001  8.819209e-001
    outer loop
      vertex  0.000000e+000 -7.305570e+000  5.787906e+000
      vertex  1.700000e+001 -7.305570e+000  5.787906e+000
      vertex  0.000000e+000 -7.132683e+000  5.880316e+000
    endloop
  endfacet
  facet normal  0.000000e+000 -4.713973e-001  8.819209e-001
    outer loop
      vertex  0.000000e+000 -7.132683e+000  5.880316e+000
      vertex  1.700000e+001 -7.305570e+000  5.787906e+000
      vertex  1.700000e+001 -7.132683e+000  5.880316e+000
    endloop
  endfacet
  facet normal  0.000000e+000 -2.902848e-001  9.569403e-001
    outer loop
      vertex  0.000000e+000 -7.132683e+000  5.880316e+000
      vertex  1.700000e+001 -7.132683e+000  5.880316e+000
      vertex  0.000000e+000 -6.945090e+000  5.937222e+000
    endloop
  endfacet
  facet normal  0.000000e+000 -2.902848e-001  9.569403e-001
    outer loop
      vertex  0.000000e+000 -6.945090e+000  5.937222e+000
      vertex  1.700000e+001 -7.132683e+000  5.880316e+000
      vertex  1.700000e+001 -6.945090e+000  5.937222e+000
    endloop
  endfacet
  facet normal  0.000000e+000 -9.801671e-002  9.951848e-001
    outer loop
      vertex  0.000000e+000 -6.945090e+000  5.937222e+000
      vertex  1.700000e+001 -6.945090e+000  5.937222e+000
      vertex  0.000000e+000 -6.750000e+000  5.956436e+000
    endloop
  endfacet
  facet normal  0.000000e+000 -9.801671e-002  9.951848e-001
    outer loop
      vertex  0.000000e+000 -6.750000e+000  5.956436e+000
      vertex  1.700000e+001 -6.945090e+000  5.937222e+000
      vertex  1.700000e+001 -6.750000e+000  5.956436e+000
    endloop
  endfacet
  facet normal  0.000000e+000 -1.000000e+000  0.000000e+000
    outer loop
      vertex  0.000000e+000 -4.250000e+000  1.395644e+001
      vertex  0.000000e+000 -4.250000e+000  6.956436e+000
      vertex  1.700000e+001 -4.250000e+000  1.395644e+001
    endloop
  endfacet
  facet normal  0.000000e+000 -1.000000e+000  -0.000000e+000
    outer loop
      vertex  1.700000e+001 -4.250000e+000  1.395644e+001
      vertex  0.000000e+000 -4.250000e+000  6.956436e+000
      vertex  1.700000e+001 -4.250000e+000  6.956436e+000
    endloop
  endfacet
  facet normal  0.000000e+000 -7.730100e-001  6.343938e-001
    outer loop
      vertex  0.000000e+000 -4.542893e+000  6.249330e+000
      vertex  1.700000e+001 -4.418530e+000  6.400866e+000
      vertex  0.000000e+000 -4.418530e+000  6.400866e+000
    endloop
  endfacet
  facet normal  0.000000e+000 -8.819209e-001  4.713973e-001
    outer loop
      vertex  0.000000e+000 -4.418530e+000  6.400866e+000
      vertex  1.700000e+001 -4.418530e+000  6.400866e+000
      vertex  1.700000e+001 -4.326120e+000  6.573753e+000
    endloop
  endfacet
  facet normal  0.000000e+000 -8.819209e-001  4.713973e-001
    outer loop
      vertex  0.000000e+000 -4.418530e+000  6.400866e+000
      vertex  1.700000e+001 -4.326120e+000  6.573753e+000
      vertex  0.000000e+000 -4.326120e+000  6.573753e+000
    endloop
  endfacet
  facet normal  0.000000e+000 -9.569403e-001  2.902848e-001
    outer loop
      vertex  0.000000e+000 -4.326120e+000  6.573753e+000
      vertex  1.700000e+001 -4.326120e+000  6.573753e+000
      vertex  1.700000e+001 -4.269215e+000  6.761346e+000
    endloop
  endfacet
  facet normal  0.000000e+000 -9.569403e-001  2.902848e-001
    outer loop
      vertex  0.000000e+000 -4.326120e+000  6.573753e+000
      vertex  1.700000e+001 -4.269215e+000  6.761346e+000
      vertex  0.000000e+000 -4.269215e+000  6.761346e+000
    endloop
  endfacet
  facet normal  0.000000e+000 -9.951848e-001  9.801671e-002
    outer loop
      vertex  0.000000e+000 -4.269215e+000  6.761346e+000
      vertex  1.700000e+001 -4.269215e+000  6.761346e+000
      vertex  1.700000e+001 -4.250000e+000  6.956436e+000
    endloop
  endfacet
  facet normal  0.000000e+000 -9.951848e-001  9.801671e-002
    outer loop
      vertex  0.000000e+000 -4.269215e+000  6.761346e+000
      vertex  1.700000e+001 -4.250000e+000  6.956436e+000
      vertex  0.000000e+000 -4.250000e+000  6.956436e+000
    endloop
  endfacet
  facet normal  0.000000e+000 -7.730100e-001  6.343938e-001
    outer loop
      vertex  1.700000e+001 -4.418530e+000  6.400866e+000
      vertex  0.000000e+000 -4.542893e+000  6.249330e+000
      vertex  1.700000e+001 -4.542893e+000  6.249330e+000
    endloop
  endfacet
  facet normal  0.000000e+000 -6.343938e-001  7.730100e-001
    outer loop
      vertex  1.700000e+001 -4.542893e+000  6.249330e+000
      vertex  0.000000e+000 -4.542893e+000  6.249330e+000
      vertex  0.000000e+000 -4.694430e+000  6.124967e+000
    endloop
  endfacet
  facet normal  0.000000e+000 -6.343938e-001  7.730100e-001
    outer loop
      vertex  1.700000e+001 -4.542893e+000  6.249330e+000
      vertex  0.000000e+000 -4.694430e+000  6.124967e+000
      vertex  1.700000e+001 -4.694430e+000  6.124967e+000
    endloop
  endfacet
  facet normal  0.000000e+000 -4.713973e-001  8.819209e-001
    outer loop
      vertex  1.700000e+001 -4.694430e+000  6.124967e+000
      vertex  0.000000e+000 -4.694430e+000  6.124967e+000
      vertex  0.000000e+000 -4.867317e+000  6.032557e+000
    endloop
  endfacet
  facet normal  0.000000e+000 -4.713973e-001  8.819209e-001
    outer loop
      vertex  1.700000e+001 -4.694430e+000  6.124967e+000
      vertex  0.000000e+000 -4.867317e+000  6.032557e+000
      vertex  1.700000e+001 -4.867317e+000  6.032557e+000
    endloop
  endfacet
  facet normal  0.000000e+000 -2.902848e-001  9.569403e-001
    outer loop
      vertex  1.700000e+001 -4.867317e+000  6.032557e+000
      vertex  0.000000e+000 -4.867317e+000  6.032557e+000
      vertex  0.000000e+000 -5.054910e+000  5.975651e+000
    endloop
  endfacet
  facet normal  0.000000e+000 -2.902848e-001  9.569403e-001
    outer loop
      vertex  1.700000e+001 -4.867317e+000  6.032557e+000
      vertex  0.000000e+000 -5.054910e+000  5.975651e+000
      vertex  1.700000e+001 -5.054910e+000  5.975651e+000
    endloop
  endfacet
  facet normal  0.000000e+000 -9.801671e-002  9.951848e-001
    outer loop
      vertex  1.700000e+001 -5.054910e+000  5.975651e+000
      vertex  0.000000e+000 -5.054910e+000  5.975651e+000
      vertex  0.000000e+000 -5.250000e+000  5.956436e+000
    endloop
  endfacet
  facet normal  0.000000e+000 -9.801671e-002  9.951848e-001
    outer loop
      vertex  1.700000e+001 -5.054910e+000  5.975651e+000
      vertex  0.000000e+000 -5.250000e+000  5.956436e+000
      vertex  1.700000e+001 -5.250000e+000  5.956436e+000
    endloop
  endfacet
  facet normal  0.000000e+000  9.951848e-001 -9.801670e-002
    outer loop
      vertex  0.000000e+000  7.750000e+000  1.956436e+000
      vertex  2.000000e+001  7.750000e+000  1.956436e+000
      vertex  0.000000e+000  7.730785e+000  1.761346e+000
    endloop
  endfacet
  facet normal  0.000000e+000  9.951848e-001 -9.801670e-002
    outer loop
      vertex  0.000000e+000  7.730785e+000  1.761346e+000
      vertex  2.000000e+001  7.750000e+000  1.956436e+000
      vertex  2.000000e+001  7.730785e+000  1.761346e+000
    endloop
  endfacet
  facet normal  0.000000e+000  9.569404e-001 -2.902847e-001
    outer loop
      vertex  0.000000e+000  7.730785e+000  1.761346e+000
      vertex  2.000000e+001  7.730785e+000  1.761346e+000
      vertex  0.000000e+000  7.673880e+000  1.573753e+000
    endloop
  endfacet
  facet normal  0.000000e+000  9.569404e-001 -2.902847e-001
    outer loop
      vertex  0.000000e+000  7.673880e+000  1.573753e+000
      vertex  2.000000e+001  7.730785e+000  1.761346e+000
      vertex  2.000000e+001  7.673880e+000  1.573753e+000
    endloop
  endfacet
  facet normal  0.000000e+000  8.819210e-001 -4.713973e-001
    outer loop
      vertex  0.000000e+000  7.673880e+000  1.573753e+000
      vertex  2.000000e+001  7.673880e+000  1.573753e+000
      vertex  0.000000e+000  7.581470e+000  1.400866e+000
    endloop
  endfacet
  facet normal  0.000000e+000  8.819210e-001 -4.713973e-001
    outer loop
      vertex  0.000000e+000  7.581470e+000  1.400866e+000
      vertex  2.000000e+001  7.673880e+000  1.573753e+000
      vertex  2.000000e+001  7.581470e+000  1.400866e+000
    endloop
  endfacet
  facet normal  0.000000e+000  7.730103e-001 -6.343936e-001
    outer loop
      vertex  0.000000e+000  7.581470e+000  1.400866e+000
      vertex  2.000000e+001  7.581470e+000  1.400866e+000
      vertex  0.000000e+000  7.457107e+000  1.249329e+000
    endloop
  endfacet
  facet normal  0.000000e+000  7.730103e-001 -6.343936e-001
    outer loop
      vertex  0.000000e+000  7.457107e+000  1.249329e+000
      vertex  2.000000e+001  7.581470e+000  1.400866e+000
      vertex  2.000000e+001  7.457107e+000  1.249329e+000
    endloop
  endfacet
  facet normal  0.000000e+000  6.343935e-001 -7.730103e-001
    outer loop
      vertex  0.000000e+000  7.457107e+000  1.249329e+000
      vertex  2.000000e+001  7.457107e+000  1.249329e+000
      vertex  0.000000e+000  7.305570e+000  1.124967e+000
    endloop
  endfacet
  facet normal  0.000000e+000  6.343935e-001 -7.730103e-001
    outer loop
      vertex  0.000000e+000  7.305570e+000  1.124967e+000
      vertex  2.000000e+001  7.457107e+000  1.249329e+000
      vertex  2.000000e+001  7.305570e+000  1.124967e+000
    endloop
  endfacet
  facet normal  0.000000e+000  4.713964e-001 -8.819215e-001
    outer loop
      vertex  0.000000e+000  7.305570e+000  1.124967e+000
      vertex  2.000000e+001  7.305570e+000  1.124967e+000
      vertex  0.000000e+000  7.132683e+000  1.032557e+000
    endloop
  endfacet
  facet normal  0.000000e+000  4.713964e-001 -8.819215e-001
    outer loop
      vertex  0.000000e+000  7.132683e+000  1.032557e+000
      vertex  2.000000e+001  7.305570e+000  1.124967e+000
      vertex  2.000000e+001  7.132683e+000  1.032557e+000
    endloop
  endfacet
  facet normal  0.000000e+000  2.902849e-001 -9.569404e-001
    outer loop
      vertex  0.000000e+000  7.132683e+000  1.032557e+000
      vertex  2.000000e+001  7.132683e+000  1.032557e+000
      vertex  0.000000e+000  6.945090e+000  9.756509e-001
    endloop
  endfacet
  facet normal  0.000000e+000  2.902849e-001 -9.569404e-001
    outer loop
      vertex  0.000000e+000  6.945090e+000  9.756509e-001
      vertex  2.000000e+001  7.132683e+000  1.032557e+000
      vertex  2.000000e+001  6.945090e+000  9.756509e-001
    endloop
  endfacet
  facet normal  0.000000e+000  9.801730e-002 -9.951847e-001
    outer loop
      vertex  0.000000e+000  6.945090e+000  9.756509e-001
      vertex  2.000000e+001  6.945090e+000  9.756509e-001
      vertex  0.000000e+000  6.750000e+000  9.564362e-001
    endloop
  endfacet
  facet normal  0.000000e+000  9.801730e-002 -9.951847e-001
    outer loop
      vertex  0.000000e+000  6.750000e+000  9.564362e-001
      vertex  2.000000e+001  6.945090e+000  9.756509e-001
      vertex  2.000000e+001  6.750000e+000  9.564362e-001
    endloop
  endfacet
  facet normal  0.000000e+000  0.000000e+000  1.000000e+000
    outer loop
      vertex  0.000000e+000  6.750000e+000  5.956436e+000
      vertex  0.000000e+000  4.750000e+000  5.956436e+000
      vertex  1.700000e+001  6.750000e+000  5.956436e+000
    endloop
  endfacet
  facet normal  0.000000e+000  0.000000e+000  1.000000e+000
    outer loop
      vertex  1.700000e+001  6.750000e+000  5.956436e+000
      vertex  0.000000e+000  4.750000e+000  5.956436e+000
      vertex  1.700000e+001  4.750000e+000  5.956436e+000
    endloop
  endfacet
  facet normal  0.000000e+000  9.801671e-002  9.951848e-001
    outer loop
      vertex  0.000000e+000  6.750000e+000  5.956436e+000
      vertex  1.700000e+001  6.750000e+000  5.956436e+000
      vertex  0.000000e+000  6.945090e+000  5.937222e+000
    endloop
  endfacet
  facet normal  -0.000000e+000  9.801671e-002  9.951848e-001
    outer loop
      vertex  0.000000e+000  6.945090e+000  5.937222e+000
      vertex  1.700000e+001  6.750000e+000  5.956436e+000
      vertex  1.700000e+001  6.945090e+000  5.937222e+000
    endloop
  endfacet
  facet normal  0.000000e+000  2.902848e-001  9.569403e-001
    outer loop
      vertex  0.000000e+000  6.945090e+000  5.937222e+000
      vertex  1.700000e+001  6.945090e+000  5.937222e+000
      vertex  0.000000e+000  7.132683e+000  5.880316e+000
    endloop
  endfacet
  facet normal  -0.000000e+000  2.902848e-001  9.569403e-001
    outer loop
      vertex  0.000000e+000  7.132683e+000  5.880316e+000
      vertex  1.700000e+001  6.945090e+000  5.937222e+000
      vertex  1.700000e+001  7.132683e+000  5.880316e+000
    endloop
  endfacet
  facet normal  0.000000e+000  4.713973e-001  8.819209e-001
    outer loop
      vertex  0.000000e+000  7.132683e+000  5.880316e+000
      vertex  1.700000e+001  7.132683e+000  5.880316e+000
      vertex  0.000000e+000  7.305570e+000  5.787906e+000
    endloop
  endfacet
  facet normal  -0.000000e+000  4.713973e-001  8.819209e-001
    outer loop
      vertex  0.000000e+000  7.305570e+000  5.787906e+000
      vertex  1.700000e+001  7.132683e+000  5.880316e+000
      vertex  1.700000e+001  7.305570e+000  5.787906e+000
    endloop
  endfacet
  facet normal  0.000000e+000  6.343938e-001  7.730100e-001
    outer loop
      vertex  0.000000e+000  7.305570e+000  5.787906e+000
      vertex  1.700000e+001  7.305570e+000  5.787906e+000
      vertex  0.000000e+000  7.457107e+000  5.663543e+000
    endloop
  endfacet
  facet normal  -0.000000e+000  6.343938e-001  7.730100e-001
    outer loop
      vertex  0.000000e+000  7.457107e+000  5.663543e+000
      vertex  1.700000e+001  7.305570e+000  5.787906e+000
      vertex  1.700000e+001  7.457107e+000  5.663543e+000
    endloop
  endfacet
  facet normal  0.000000e+000  7.730100e-001  6.343938e-001
    outer loop
      vertex  0.000000e+000  7.457107e+000  5.663543e+000
      vertex  1.700000e+001  7.457107e+000  5.663543e+000
      vertex  0.000000e+000  7.581470e+000  5.512006e+000
    endloop
  endfacet
  facet normal  -0.000000e+000  7.730100e-001  6.343938e-001
    outer loop
      vertex  0.000000e+000  7.581470e+000  5.512006e+000
      vertex  1.700000e+001  7.457107e+000  5.663543e+000
      vertex  1.700000e+001  7.581470e+000  5.512006e+000
    endloop
  endfacet
  facet normal  0.000000e+000  8.819209e-001  4.713973e-001
    outer loop
      vertex  0.000000e+000  7.581470e+000  5.512006e+000
      vertex  1.700000e+001  7.581470e+000  5.512006e+000
      vertex  0.000000e+000  7.673880e+000  5.339119e+000
    endloop
  endfacet
  facet normal  -0.000000e+000  8.819209e-001  4.713973e-001
    outer loop
      vertex  0.000000e+000  7.673880e+000  5.339119e+000
      vertex  1.700000e+001  7.581470e+000  5.512006e+000
      vertex  1.700000e+001  7.673880e+000  5.339119e+000
    endloop
  endfacet
  facet normal  0.000000e+000  9.569403e-001  2.902848e-001
    outer loop
      vertex  0.000000e+000  7.673880e+000  5.339119e+000
      vertex  1.700000e+001  7.673880e+000  5.339119e+000
      vertex  0.000000e+000  7.730785e+000  5.151526e+000
    endloop
  endfacet
  facet normal  -0.000000e+000  9.569403e-001  2.902848e-001
    outer loop
      vertex  0.000000e+000  7.730785e+000  5.151526e+000
      vertex  1.700000e+001  7.673880e+000  5.339119e+000
      vertex  1.700000e+001  7.730785e+000  5.151526e+000
    endloop
  endfacet
  facet normal  0.000000e+000  9.951848e-001  9.801671e-002
    outer loop
      vertex  0.000000e+000  7.730785e+000  5.151526e+000
      vertex  1.700000e+001  7.730785e+000  5.151526e+000
      vertex  0.000000e+000  7.750000e+000  4.956436e+000
    endloop
  endfacet
  facet normal  -0.000000e+000  9.951848e-001  9.801671e-002
    outer loop
      vertex  0.000000e+000  7.750000e+000  4.956436e+000
      vertex  1.700000e+001  7.730785e+000  5.151526e+000
      vertex  1.700000e+001  7.750000e+000  4.956436e+000
    endloop
  endfacet
  facet normal  0.000000e+000  1.000000e+000  0.000000e+000
    outer loop
      vertex  0.000000e+000  3.750000e+000  6.956436e+000
      vertex  0.000000e+000  3.750000e+000  1.395644e+001
      vertex  1.700000e+001  3.750000e+000  6.956436e+000
    endloop
  endfacet
  facet normal  0.000000e+000  1.000000e+000  -0.000000e+000
    outer loop
      vertex  1.700000e+001  3.750000e+000  6.956436e+000
      vertex  0.000000e+000  3.750000e+000  1.395644e+001
      vertex  1.700000e+001  3.750000e+000  1.395644e+001
    endloop
  endfacet
  facet normal  0.000000e+000  6.343938e-001  7.730100e-001
    outer loop
      vertex  0.000000e+000  4.042893e+000  6.249330e+000
      vertex  1.700000e+001  4.194430e+000  6.124967e+000
      vertex  0.000000e+000  4.194430e+000  6.124967e+000
    endloop
  endfacet
  facet normal  -0.000000e+000  4.713973e-001  8.819209e-001
    outer loop
      vertex  0.000000e+000  4.194430e+000  6.124967e+000
      vertex  1.700000e+001  4.194430e+000  6.124967e+000
      vertex  1.700000e+001  4.367317e+000  6.032557e+000
    endloop
  endfacet
  facet normal  0.000000e+000  4.713973e-001  8.819209e-001
    outer loop
      vertex  0.000000e+000  4.194430e+000  6.124967e+000
      vertex  1.700000e+001  4.367317e+000  6.032557e+000
      vertex  0.000000e+000  4.367317e+000  6.032557e+000
    endloop
  endfacet
  facet normal  -0.000000e+000  2.902848e-001  9.569403e-001
    outer loop
      vertex  0.000000e+000  4.367317e+000  6.032557e+000
      vertex  1.700000e+001  4.367317e+000  6.032557e+000
      vertex  1.700000e+001  4.554910e+000  5.975651e+000
    endloop
  endfacet
  facet normal  0.000000e+000  2.902848e-001  9.569403e-001
    outer loop
      vertex  0.000000e+000  4.367317e+000  6.032557e+000
      vertex  1.700000e+001  4.554910e+000  5.975651e+000
      vertex  0.000000e+000  4.554910e+000  5.975651e+000
    endloop
  endfacet
  facet normal  -0.000000e+000  9.801671e-002  9.951848e-001
    outer loop
      vertex  0.000000e+000  4.554910e+000  5.975651e+000
      vertex  1.700000e+001  4.554910e+000  5.975651e+000
      vertex  1.700000e+001  4.750000e+000  5.956436e+000
    endloop
  endfacet
  facet normal  0.000000e+000  9.801671e-002  9.951848e-001
    outer loop
      vertex  0.000000e+000  4.554910e+000  5.975651e+000
      vertex  1.700000e+001  4.750000e+000  5.956436e+000
      vertex  0.000000e+000  4.750000e+000  5.956436e+000
    endloop
  endfacet
  facet normal  -0.000000e+000  6.343938e-001  7.730100e-001
    outer loop
      vertex  1.700000e+001  4.194430e+000  6.124967e+000
      vertex  0.000000e+000  4.042893e+000  6.249330e+000
      vertex  1.700000e+001  4.042893e+000  6.249330e+000
    endloop
  endfacet
  facet normal  0.000000e+000  7.730100e-001  6.343938e-001
    outer loop
      vertex  1.700000e+001  4.042893e+000  6.249330e+000
      vertex  0.000000e+000  4.042893e+000  6.249330e+000
      vertex  0.000000e+000  3.918530e+000  6.400866e+000
    endloop
  endfacet
  facet normal  -0.000000e+000  7.730100e-001  6.343938e-001
    outer loop
      vertex  1.700000e+001  4.042893e+000  6.249330e+000
      vertex  0.000000e+000  3.918530e+000  6.400866e+000
      vertex  1.700000e+001  3.918530e+000  6.400866e+000
    endloop
  endfacet
  facet normal  0.000000e+000  8.819209e-001  4.713973e-001
    outer loop
      vertex  1.700000e+001  3.918530e+000  6.400866e+000
      vertex  0.000000e+000  3.918530e+000  6.400866e+000
      vertex  0.000000e+000  3.826120e+000  6.573753e+000
    endloop
  endfacet
  facet normal  -0.000000e+000  8.819209e-001  4.713973e-001
    outer loop
      vertex  1.700000e+001  3.918530e+000  6.400866e+000
      vertex  0.000000e+000  3.826120e+000  6.573753e+000
      vertex  1.700000e+001  3.826120e+000  6.573753e+000
    endloop
  endfacet
  facet normal  0.000000e+000  9.569403e-001  2.902848e-001
    outer loop
      vertex  1.700000e+001  3.826120e+000  6.573753e+000
      vertex  0.000000e+000  3.826120e+000  6.573753e+000
      vertex  0.000000e+000  3.769215e+000  6.761346e+000
    endloop
  endfacet
  facet normal  -0.000000e+000  9.569403e-001  2.902848e-001
    outer loop
      vertex  1.700000e+001  3.826120e+000  6.573753e+000
      vertex  0.000000e+000  3.769215e+000  6.761346e+000
      vertex  1.700000e+001  3.769215e+000  6.761346e+000
    endloop
  endfacet
  facet normal  0.000000e+000  9.951848e-001  9.801671e-002
    outer loop
      vertex  1.700000e+001  3.769215e+000  6.761346e+000
      vertex  0.000000e+000  3.769215e+000  6.761346e+000
      vertex  0.000000e+000  3.750000e+000  6.956436e+000
    endloop
  endfacet
  facet normal  -0.000000e+000  9.951848e-001  9.801671e-002
    outer loop
      vertex  1.700000e+001  3.769215e+000  6.761346e+000
      vertex  0.000000e+000  3.750000e+000  6.956436e+000
      vertex  1.700000e+001  3.750000e+000  6.956436e+000
    endloop
  endfacet
  facet normal  0.000000e+000 -9.951848e-001  9.801671e-002
    outer loop
      vertex  0.000000e+000 -4.250000e+000  1.395644e+001
      vertex  1.700000e+001 -4.250000e+000  1.395644e+001
      vertex  0.000000e+000 -4.230785e+000  1.415153e+001
    endloop
  endfacet
  facet normal  0.000000e+000 -9.951848e-001  9.801671e-002
    outer loop
      vertex  0.000000e+000 -4.230785e+000  1.415153e+001
      vertex  1.700000e+001 -4.250000e+000  1.395644e+001
      vertex  1.700000e+001 -4.230785e+000  1.415153e+001
    endloop
  endfacet
  facet normal  0.000000e+000 -9.569405e-001  2.902842e-001
    outer loop
      vertex  0.000000e+000 -4.230785e+000  1.415153e+001
      vertex  1.700000e+001 -4.230785e+000  1.415153e+001
      vertex  0.000000e+000 -4.173880e+000  1.433912e+001
    endloop
  endfacet
  facet normal  0.000000e+000 -9.569405e-001  2.902842e-001
    outer loop
      vertex  0.000000e+000 -4.173880e+000  1.433912e+001
      vertex  1.700000e+001 -4.230785e+000  1.415153e+001
      vertex  1.700000e+001 -4.173880e+000  1.433912e+001
    endloop
  endfacet
  facet normal  0.000000e+000 -8.819209e-001  4.713973e-001
    outer loop
      vertex  0.000000e+000 -4.173880e+000  1.433912e+001
      vertex  1.700000e+001 -4.173880e+000  1.433912e+001
      vertex  0.000000e+000 -4.081470e+000  1.451201e+001
    endloop
  endfacet
  facet normal  0.000000e+000 -8.819209e-001  4.713973e-001
    outer loop
      vertex  0.000000e+000 -4.081470e+000  1.451201e+001
      vertex  1.700000e+001 -4.173880e+000  1.433912e+001
      vertex  1.700000e+001 -4.081470e+000  1.451201e+001
    endloop
  endfacet
  facet normal  0.000000e+000 -7.730096e-001  6.343943e-001
    outer loop
      vertex  0.000000e+000 -4.081470e+000  1.451201e+001
      vertex  1.700000e+001 -4.081470e+000  1.451201e+001
      vertex  0.000000e+000 -3.957107e+000  1.466354e+001
    endloop
  endfacet
  facet normal  0.000000e+000 -7.730096e-001  6.343943e-001
    outer loop
      vertex  0.000000e+000 -3.957107e+000  1.466354e+001
      vertex  1.700000e+001 -4.081470e+000  1.451201e+001
      vertex  1.700000e+001 -3.957107e+000  1.466354e+001
    endloop
  endfacet
  facet normal  0.000000e+000 -6.343933e-001  7.730105e-001
    outer loop
      vertex  0.000000e+000 -3.957107e+000  1.466354e+001
      vertex  1.700000e+001 -3.957107e+000  1.466354e+001
      vertex  0.000000e+000 -3.805570e+000  1.478791e+001
    endloop
  endfacet
  facet normal  0.000000e+000 -6.343933e-001  7.730105e-001
    outer loop
      vertex  0.000000e+000 -3.805570e+000  1.478791e+001
      vertex  1.700000e+001 -3.957107e+000  1.466354e+001
      vertex  1.700000e+001 -3.805570e+000  1.478791e+001
    endloop
  endfacet
  facet normal  0.000000e+000 -4.713978e-001  8.819207e-001
    outer loop
      vertex  0.000000e+000 -3.805570e+000  1.478791e+001
      vertex  1.700000e+001 -3.805570e+000  1.478791e+001
      vertex  0.000000e+000 -3.632684e+000  1.488032e+001
    endloop
  endfacet
  facet normal  0.000000e+000 -4.713978e-001  8.819207e-001
    outer loop
      vertex  0.000000e+000 -3.632684e+000  1.488032e+001
      vertex  1.700000e+001 -3.805570e+000  1.478791e+001
      vertex  1.700000e+001 -3.632684e+000  1.488032e+001
    endloop
  endfacet
  facet normal  0.000000e+000 -2.902845e-001  9.569404e-001
    outer loop
      vertex  0.000000e+000 -3.632684e+000  1.488032e+001
      vertex  1.700000e+001 -3.632684e+000  1.488032e+001
      vertex  0.000000e+000 -3.445090e+000  1.493722e+001
    endloop
  endfacet
  facet normal  0.000000e+000 -2.902845e-001  9.569404e-001
    outer loop
      vertex  0.000000e+000 -3.445090e+000  1.493722e+001
      vertex  1.700000e+001 -3.632684e+000  1.488032e+001
      vertex  1.700000e+001 -3.445090e+000  1.493722e+001
    endloop
  endfacet
  facet normal  0.000000e+000 -9.801671e-002  9.951848e-001
    outer loop
      vertex  0.000000e+000 -3.445090e+000  1.493722e+001
      vertex  1.700000e+001 -3.445090e+000  1.493722e+001
      vertex  0.000000e+000 -3.250000e+000  1.495644e+001
    endloop
  endfacet
  facet normal  0.000000e+000 -9.801671e-002  9.951848e-001
    outer loop
      vertex  0.000000e+000 -3.250000e+000  1.495644e+001
      vertex  1.700000e+001 -3.445090e+000  1.493722e+001
      vertex  1.700000e+001 -3.250000e+000  1.495644e+001
    endloop
  endfacet
  facet normal  0.000000e+000  9.801671e-002  9.951848e-001
    outer loop
      vertex  0.000000e+000  2.750000e+000  1.495644e+001
      vertex  1.700000e+001  2.750000e+000  1.495644e+001
      vertex  0.000000e+000  2.945090e+000  1.493722e+001
    endloop
  endfacet
  facet normal  -0.000000e+000  9.801671e-002  9.951848e-001
    outer loop
      vertex  0.000000e+000  2.945090e+000  1.493722e+001
      vertex  1.700000e+001  2.750000e+000  1.495644e+001
      vertex  1.700000e+001  2.945090e+000  1.493722e+001
    endloop
  endfacet
  facet normal  0.000000e+000  2.902845e-001  9.569404e-001
    outer loop
      vertex  0.000000e+000  2.945090e+000  1.493722e+001
      vertex  1.700000e+001  2.945090e+000  1.493722e+001
      vertex  0.000000e+000  3.132684e+000  1.488032e+001
    endloop
  endfacet
  facet normal  -0.000000e+000  2.902845e-001  9.569404e-001
    outer loop
      vertex  0.000000e+000  3.132684e+000  1.488032e+001
      vertex  1.700000e+001  2.945090e+000  1.493722e+001
      vertex  1.700000e+001  3.132684e+000  1.488032e+001
    endloop
  endfacet
  facet normal  0.000000e+000  4.713978e-001  8.819207e-001
    outer loop
      vertex  0.000000e+000  3.132684e+000  1.488032e+001
      vertex  1.700000e+001  3.132684e+000  1.488032e+001
      vertex  0.000000e+000  3.305570e+000  1.478791e+001
    endloop
  endfacet
  facet normal  -0.000000e+000  4.713978e-001  8.819207e-001
    outer loop
      vertex  0.000000e+000  3.305570e+000  1.478791e+001
      vertex  1.700000e+001  3.132684e+000  1.488032e+001
      vertex  1.700000e+001  3.305570e+000  1.478791e+001
    endloop
  endfacet
  facet normal  0.000000e+000  6.343933e-001  7.730105e-001
    outer loop
      vertex  0.000000e+000  3.305570e+000  1.478791e+001
      vertex  1.700000e+001  3.305570e+000  1.478791e+001
      vertex  0.000000e+000  3.457107e+000  1.466354e+001
    endloop
  endfacet
  facet normal  -0.000000e+000  6.343933e-001  7.730105e-001
    outer loop
      vertex  0.000000e+000  3.457107e+000  1.466354e+001
      vertex  1.700000e+001  3.305570e+000  1.478791e+001
      vertex  1.700000e+001  3.457107e+000  1.466354e+001
    endloop
  endfacet
  facet normal  0.000000e+000  7.730096e-001  6.343943e-001
    outer loop
      vertex  0.000000e+000  3.457107e+000  1.466354e+001
      vertex  1.700000e+001  3.457107e+000  1.466354e+001
      vertex  0.000000e+000  3.581470e+000  1.451201e+001
    endloop
  endfacet
  facet normal  -0.000000e+000  7.730096e-001  6.343943e-001
    outer loop
      vertex  0.000000e+000  3.581470e+000  1.451201e+001
      vertex  1.700000e+001  3.457107e+000  1.466354e+001
      vertex  1.700000e+001  3.581470e+000  1.451201e+001
    endloop
  endfacet
  facet normal  0.000000e+000  8.819209e-001  4.713973e-001
    outer loop
      vertex  0.000000e+000  3.581470e+000  1.451201e+001
      vertex  1.700000e+001  3.581470e+000  1.451201e+001
      vertex  0.000000e+000  3.673880e+000  1.433912e+001
    endloop
  endfacet
  facet normal  -0.000000e+000  8.819209e-001  4.713973e-001
    outer loop
      vertex  0.000000e+000  3.673880e+000  1.433912e+001
      vertex  1.700000e+001  3.581470e+000  1.451201e+001
      vertex  1.700000e+001  3.673880e+000  1.433912e+001
    endloop
  endfacet
  facet normal  0.000000e+000  9.569405e-001  2.902842e-001
    outer loop
      vertex  0.000000e+000  3.673880e+000  1.433912e+001
      vertex  1.700000e+001  3.673880e+000  1.433912e+001
      vertex  0.000000e+000  3.730785e+000  1.415153e+001
    endloop
  endfacet
  facet normal  -0.000000e+000  9.569405e-001  2.902842e-001
    outer loop
      vertex  0.000000e+000  3.730785e+000  1.415153e+001
      vertex  1.700000e+001  3.673880e+000  1.433912e+001
      vertex  1.700000e+001  3.730785e+000  1.415153e+001
    endloop
  endfacet
  facet normal  0.000000e+000  9.951848e-001  9.801671e-002
    outer loop
      vertex  0.000000e+000  3.730785e+000  1.415153e+001
      vertex  1.700000e+001  3.730785e+000  1.415153e+001
      vertex  0.000000e+000  3.750000e+000  1.395644e+001
    endloop
  endfacet
  facet normal  -0.000000e+000  9.951848e-001  9.801671e-002
    outer loop
      vertex  0.000000e+000  3.750000e+000  1.395644e+001
      vertex  1.700000e+001  3.730785e+000  1.415153e+001
      vertex  1.700000e+001  3.750000e+000  1.395644e+001
    endloop
  endfacet
endsolid CATIA STL
